<?xml version="1.0" encoding="UTF-8"?><svg id="Capa_1" xmlns="http://www.w3.org/2000/svg" viewBox="0 0 500 500"><defs><style>.cls-1{fill:#fff;}.cls-2{fill:#f6f6f6;}.cls-3,.cls-4{fill:#e41315;}.cls-5{fill:#0a7341;}.cls-4{stroke:#f6f6f6;stroke-linecap:round;stroke-linejoin:round;stroke-width:.75px;}.cls-6{fill:#1d1d1b;}</style></defs><path class="cls-1" d="M357.06,125.53h-3.86c-.8,2.01-4.34,15.13-26.55,13.12-22.2-2.01-20.07-20.73-20.07-20.73h-7.66v-4.17h-5.43v-3.36h-87.48v3.36h-5.43v4.17h-7.66s2.13,18.72-20.07,20.73c-22.2,2.01-25.74-11.12-26.55-13.12h-3.86l-32.18,35.51,.6,5.26h8.14c5.03,0,9.28,9.44,10.9,12.84,3.02,6.33,4.92,13.15,5.61,20.08,.72,7.25-.9,14.09-1.38,21.3-.64,9.57-2.41,19.02-3.28,28.57-1.98,21.85,5.73,42.55,16.18,61.6,20.31,37.01,56.2,62.36,97.18,75.11,1.86,.58,3.76,1.14,5.71,1.13,2.17,0,4.27-.72,6.31-1.43,15.24-5.36,30.28-11.5,43.91-20.04,7.23-4.52,14.1-9.58,20.48-15.16,6.41-5.61,12.5-11.65,17.73-18.31,9.58-12.2,17.75-25.8,23.22-40.16,5.33-14,8.25-29.07,6.79-43.99-1.06-10.85-2.38-21.68-3.26-32.55-1.16-14.29-1.34-29.1,7.18-41.6,2-2.93,4.97-6.56,8.62-7.39,2.3-.52,5.34,0,7.72,0l.6-5.26-32.18-35.51Z"/><g><g><path class="cls-5" d="M221.16,43.2c1.95-1.66,3.44-2.93,5.69-4.02,2.47-1.19,5-1.67,7.22-3.31,.59-.44,1.15-.93,1.6-1.51,.58-.74,.98-1.66,1.06-2.6,.09-1.07-.36-1.75-.82-2.65-.79-1.55-2.01-3.85-4.01-3.85-.76,0-1.49,.27-2.16,.61-1.95,.98-3.53,2.52-5.02,4.08-1.77,1.87-3.6,3.68-5.4,5.51-.93,.94-1.85,1.89-2.76,2.85-.84,.89-1.76,1.76-2.41,2.8-.74,1.18-1.29,2.42-1.53,3.78-.06,.33,0,1.02,.07,1.35,.17,.79,1.56,1.1,2.26,1.29,.62,.17,1.17,.01,1.66-.38,1.46-1.17,3.12-2.73,4.54-3.94Z"/><path class="cls-5" d="M203.91,54.87c-.84,.18-1.69,.3-2.54,.32-1.26,.03-2.47-.35-3.73-.26-.89,.06-1.81,.11-2.66,.37-.74,.22-1.44,.71-1.52,1.53s.34,1.74,.84,2.4c1.38,1.79,4.01,2.18,6.11,1.9,1.55-.21,3.03-.75,4.48-1.33,1.18-.47,2.61-.67,3.51-1.65,.73-.79,.98-2.38,.26-3.26-.4-.49-1.07-.69-1.71-.68s-1.25,.2-1.86,.37c-.39,.11-.78,.21-1.17,.29Z"/><path class="cls-3" d="M281.53,107.47c-2.04-8.32-7.52-15.23-8.83-23.89-.99-6.59-.85-13.28-1.11-19.92-.28-7.24,.82-19.84-3.7-25.96-4.14-5.61-11.54-7.34-18.18-6.62-8.78,.96-18.12,7.14-25.03,12.53-3.27,2.55-6.73,6.47-11.35,4.84-1.66-.59-3.01-1.79-4.51-2.7-4.68-2.84-10.67-2.29-15.3,.38-2.14,1.23-4.22,2.97-5.48,5.12-.72,1.22-1.21,2.62-1.07,4.06,.04,.36,1.48,3.83,1.79,3.44,6.48-7.99,21.06-5.72,28.91-1.43,7.87,4.3,9.78,11.53,11.03,19.78,.86,5.67,.53,11.35-1.41,16.77-1.14,3.18-2.62,6.23-4.24,9.2-1.6,2.95-3.29,5.41-3.97,8.78-.69,3.43-.66,6.96-.6,10.44,.06,3.59,.64,3.51,3.54,3.51h27.01c10.81,0,21.62,0,32.43,0,.11,0,.22,0,.33,0,.61-6.18,1.2-12.39-.26-18.33Z"/></g><path class="cls-5" d="M223.97,47.48s.7,7.76,8.44,5.24c8.18-2.67,5.4-12.65,5.4-12.65,0,0-11.69,8.72-13.84,7.41Z"/><ellipse class="cls-6" cx="229.05" cy="48.47" rx="2.07" ry="1.82"/></g><g><path class="cls-3" d="M157.07,337.92c-3.81,15.57-9.37,30.2-22.69,41.71,1.38-6.13,3.04-11.55,3.75-17.09,.84-6.63,1.16-13.36,1.2-20.05,.07-10.58,0-21.16-.08-31.74,.75,1.46,1.53,2.92,2.34,4.4,4.41,8.03,9.58,15.64,15.47,22.77Z"/><path class="cls-3" d="M139.19,122.82v.07c-.19,.05-.25,.02,0-.07Z"/><path class="cls-3" d="M225.68,101.33c-2.1,.67-12.82,.21-15.96-2.22-2.78-2.15-5.24-4.75-8.14-6.7-4.65-3.13-9.56-5.89-13.85-8.51,2.15,4.68,4.12,9.16,6.3,13.54,.64,1.3,1.68,2.54,2.84,3.4,2.86,2.13,5.82,3.6,8.88,4.44,.17-.02,3.34,2.4,3.52,2.4l13.55,.21c-.4-1.11,3.25-5.39,2.86-6.57Z"/><path class="cls-3" d="M156.5,108.74c-.99-.34-1.8-1.17-2.41-1.58,4.66-2.88,8.88-5.49,13.58-8.4-3.27-2.79-5.84-4.98-8.68-7.41,2.31-1.35,3.97-2.32,6.26-3.66-6.93-.89-12.99-1.42-18.94-2.51-4.6-.84-9.44-.94-13.11-4.95-7.72-8.43-25.06-5.37-30.35,5.49h12.97c-1.07,1.89-1.75,3.08-2.7,4.77,4.48,0,8.36,.36,12.13-.11,3.45-.43,6.78-1.75,11-2.91-2.86,6-11.28,3.83-11.67,12.11,9.81-.99,19.25-1.94,28.68-2.89-1.09,1.6-2.44,2.71-3.94,2.97-4.71,.82-9.45,1.61-14.21,1.87-6.57,.35-8.81,3.88-6.03,10.49,3.3-1.07,6.57-2.34,9.95-3.13,1.47-.34,3.26,.09,4.75,.6,2.03,.7,3.85,2.35,5.89,2.63,3.31,.45,6.73,.12,10.1,.12-.13,.76-.27,1.31-.41,1.69,1.71-.45,3.25-1.27,4.76-2.58-2.55-.86-5.08-1.73-7.62-2.61Z"/><path class="cls-3" d="M113.68,255.91c.26,1.94,.53,3.01,.53,4.09,0,36.77,.44,73.55-.18,110.31-.43,25.82-10.68,47.37-32.01,62.83-2.74,1.99-6.19,2.99-9.5,3.89,15.83-17.13,19.77-37.98,20.1-59.77,.46-30.21,.18-60.43,.24-90.65,0-1.75,.61-3.59,.27-5.24-2.3-10.91,3.07-17.78,11.92-22.68,2.39-1.33,5.29-1.74,8.64-2.78Z"/><path class="cls-3" d="M105.7,158.02c-1.25,1.38-1.84,3.24-1.63,5.1l.6,5.26c.37,3.28,3.14,5.75,6.44,5.75h3.29c-.03,5.63-.05,11.25-.06,16.88-.03,11.65,.05,23.3,.25,34.95,.29,16.77-12.26,34.67-28.31,40.12-.4,.14-.87,.02-1.63,.02,9.18-13.09,8.72-28.1,8.99-42.61,.54-28.92,0-57.85,.02-86.78,0-1.76,.44-2.15,.88-3.92,1.01-.64,3.83-1.34,4.84-1.98,5.76,3.6,9.19-3.59,15.28-3.18,0,1.79,0,3.33,0,4.87-.03,5.25-.06,10.5-.1,15.75l-8.86,9.78Z"/><path class="cls-3" d="M136.03,332.39c0,16.6-.13,33.41-7.41,48.81-3.56,7.53-8.83,14.25-13.45,21.25-.7,1.07-2.1,1.66-3.18,2.47,6.28-12.27,6.53-25.13,6.54-37.89,0-25.4-.39-50.82-.62-76.22-.1-11.19-.28-22.36-.23-33.54,0-1.36,.81-3.1,1.83-4.01,1.73-1.55,3.48-3.08,5.26-4.59-.05,.39-.08,.79-.12,1.18-1.53,17.01,2.07,34.44,11.27,54.14,.06,9.47,.11,18.94,.11,28.41Z"/><path class="cls-3" d="M129.32,201.2c.41,4.14-.1,8.35-.65,12.81-.29,2.39-.58,4.86-.76,7.42-.33,5.1-1.01,10.11-1.71,15.43-.31,2.27-.61,4.6-.89,6.93-2.74,2.7-5.96,5.13-9.56,7.33-1.58,.96-3.48,1.4-5.22,2.08,7.33-12.22,7.31-25.39,7.34-38.54,.02-13.51,.04-27.03,.05-40.54h.79c.82,.61,2.48,2.55,5.38,8.66l.24,.49c2.7,5.67,4.38,11.7,5,17.92Z"/><path class="cls-3" d="M134.29,126.47l-16.35,18.05c0-5.09,.03-10.18,.04-15.26,0-1.58,.43-3.14,.67-4.75,2.89,1.76,5.2,4.28,7.46,4.24,2.5-.04,4.96-2.42,8.11-4.14,.03,.62,.05,1.24,.07,1.86Z"/><path class="cls-3" d="M96.05,112.48c.06-6.56,1.62-9.18,7.65-11.02,6.52-1.99,13.91-1.87,18.33-8.78l1.13,1.3-5.88,8.41c3.63-.28,6.33-.5,9.14-.72-1.16,7.47-3.54,9.36-11,9.65-6.41,.25-12.81,.75-19.36,1.14Z"/><path class="cls-3" d="M97.98,129.48l-3.03,1.93c-.4-.53-1.25-1.24-1.13-1.57,1.48-3.83,3.05-7.63,4.71-11.39,1.58-3.59,4.71-4.45,8.27-4.45,5.83,.01,11.65,0,17.83,0,.89,3.49-.77,6.85-5.3,8.68-1.91,.77-3.77,1.67-5.72,2.31-2.18,.72-3.86,2.17-6.88,.33-1.51-.92-5.74,2.63-8.74,4.15Z"/><path class="cls-3" d="M162.78,84.84c-5.1-.77-10.18-1.82-15.31-2.25-6.53-.55-12.07-2.46-15.19-8.72,10.5-5.79,19.88-1.39,28.92,3.98,1.43,.85,1.7,3.67,2.51,5.58l-.93,1.4Z"/><path class="cls-3" d="M165.97,79c9.81,3.9,20.41,4.87,23.32,17.34-3.22-1.73-6.66-3.15-9.61-5.27-3.44-2.47-6.62-5.01-11.49-2.85-.74-3.07-1.36-5.65-2.22-9.23Z"/><path class="cls-3" d="M164.97,91.71c5.2-2.2,9.24-.8,13.33,2.45,2.77,2.2,6.44,3.27,9.69,4.85-9.1,5.83-11.72,5.01-23.03-7.29Z"/><path class="cls-3" d="M138.41,113.55c1.38,1.01,2.77,2.03,4.37,3.21-3.66,2.24-8.72,5.39-13.86,8.41-.67,.39-2.2,.47-2.51,.07-.58-.76-1.1-2.3-.7-2.95,2.09-3.42,2.55-8.3,8-8.88,2.14-.23,4.19-1.36,6.28-2.08-.53,.74-1.05,1.48-1.58,2.23Z"/><path class="cls-3" d="M180.13,105.95c5.22-4.91,12.29-4.53,20.84,1.11-5.75,5.15-14.22,4.7-20.84-1.11Z"/><path class="cls-3" d="M97.98,100.31c3.61-10.66,3.1-12.64,12.37-12.15-1.03,1.45-1.97,2.78-3.39,4.78h8.94l.39,1.6c-6.09,1.92-12.18,3.84-18.32,5.77Z"/><path class="cls-3" d="M175.53,105.71c-1.72-3.05-7.11-4.4-9.99-2.38-1.4,.98-2.78,1.99-4.69,3.36,9.59,4.66,16.57,5.98,18.18,4.27-1.24-1.84-2.5-3.47-3.5-5.25Z"/><path class="cls-3" d="M364.79,379.78c-12.98-11.1-18.44-25.83-21.76-41.58,.24-.29,.46-.58,.7-.87,6.32-8.05,11.77-16.31,16.28-24.69,.06,14.12,.19,28.22,.54,42.33,.2,8.26,2.75,16.46,4.24,24.81Z"/><path class="cls-3" d="M323.68,84.1c-4.6,.19-8.89,.67-12.54,4.61-3.97,4.29-8.44,8.16-12.98,11.85-1.97,1.61-17.61,.56-19.22-.43l3.94,8.01c1.74,0,14.32-.36,15.49,.77,4.63-.03,8.71-4.35,12.01-8.94,1.86-2.59,2.51-4.5,2.21-7.48-.11-1.18,1.69-3.04,3.05-3.76,2.69-1.42,5.68-2.24,8.55-3.32-.17-.44-.33-.87-.49-1.32Z"/><path class="cls-3" d="M347.22,111.85c2.47,.12,4.94,.22,7.14,.32,1.67-7.13-4.42-9.69-7.78-14.43,8.15,1.59,15.27,2.97,23.02,4.48-.39-2.67-.65-4.48-.82-5.61-5.86-2.09-10.92-4.77-16.27-5.56-5.25-.77-10.78,.37-17.24,.74,2.07,1.1,3.05,1.62,4.31,2.29-1.83,2.24-3.41,4.16-5.18,6.32,3.03,2.4,5.81,4.61,9.63,7.63-1.97,.75-3.82,1.65-5.61,2.55,.83,.3,1.75,.54,2.59,.93,2.07,.12,4.14,.25,6.21,.35Z"/><path class="cls-3" d="M427.13,438.14c-3.03-1.32-6.4-2.15-9.03-4.03-20.82-14.86-31.63-35.71-32.28-60.76-.98-37.72-.33-75.48-.34-113.22,0-.93,.3-1.85,.49-2.92,8.8-.43,13.47,6.54,19.54,10.7,1.16,.8,1.03,3.87,1.04,5.9,.2,35.98,.11,71.96,.58,107.93,.22,16.48,4.43,32.18,12.87,46.48,1.88,3.18,4.97,5.65,7.5,8.45-.12,.49-.24,.98-.36,1.48Z"/><path class="cls-3" d="M413.97,266.74c-9.5-3.24-17.21-9.18-22.37-18.18-4.43-7.72-6.55-15.9-6.44-25.1,.21-16.5,.19-33,.13-49.5,.22,0,.45,.02,.7,.04,.95,.06,1.92,.12,2.91,.12,3.3,0,6.07-2.47,6.44-5.75l.6-5.26c.21-1.85-.38-3.72-1.63-5.1l-9.12-10.07c-.03-4.88-.04-9.76-.05-14.64,0-1.86,.24-3.73,.42-6.18,3.31,1.36,6.02,2.6,8.82,3.57,1.28,.44,2.85,.82,4.07,.48,4.66-1.32,7.64,.92,7.63,5.82-.08,29.42-.32,58.84-.04,88.24,.09,8.73,1.26,17.53,2.74,26.16,.89,5.19,3.36,10.1,5.19,15.34Z"/><path class="cls-3" d="M387.83,405.4c-1.34-.99-2.86-1.83-4-3.01-7.71-7.99-12.14-17.68-15.56-28.18-5.74-17.6-4.3-35.72-4.53-53.65-.06-5.04-.09-10.08-.08-15.13,1.57-3.31,2.98-6.63,4.25-9.95,6.08-15.98,8.52-31.43,7.26-45.96,1.68,1.44,3.34,2.87,4.97,4.34,1.04,.93,1.96,2.62,1.96,3.97-.07,26.67-.32,53.36-.44,80.03-.07,13.89-.1,27.79,.07,41.68,.12,8.88,2.03,17.4,6.12,25.87Z"/><path class="cls-3" d="M381.62,144.03l-16.55-18.27c.26-.09,.53-.19,.79-.28,2.13,1.15,4.35,2.18,6.39,3.49,2.35,1.51,3.99,1.38,5.44-1.25,.57-1.02,1.97-1.58,2.99-2.34,.38,1.3,1.08,2.6,1.08,3.89-.02,4.91-.07,9.83-.13,14.76Z"/><path class="cls-3" d="M388.64,253.59c-1.08-.4-2.98-.76-4.49-1.71-3.43-2.17-6.65-4.49-9.45-7.08-.28-2.74-.57-5.5-.86-8.25-.71-6.71-1.45-13.65-2.01-20.46-1.05-12.89-1.44-26.4,6.08-37.43,1.57-2.29,2.75-3.48,3.54-4.07v.2c.19,19.16,.28,38.34,1.44,57.45,.44,7.17,3.73,14.18,5.76,21.33Z"/><path class="cls-3" d="M356.77,87.64c3.58-.98,6.53-1.5,9.24-2.62,1.82-.75,3.41-2.22,4.89-3.6,1.37-1.28,2.18-3.27,3.69-4.24,8.26-5.3,25.07,.93,28.03,9.79-7.48-1.16-15.21-2.37-23.57-3.67,.54,3.42,.89,5.59,1.37,8.6-7.76-1.7-15.96,3.81-23.65-4.26Z"/><path class="cls-3" d="M370.2,106.31c5.9-3.4,.57-7.65,2.44-11.69,.96,.26,2.7,.19,3.22,.96,2.89,4.31,7.32,4.74,11.79,5.22,.48,.05,.95,.14,1.43,.16,10.68,.39,14.18,1.06,16.34,16.6-5.22-3.65-8.98-12.16-15.86-5.33-6.62-2.02-12.64-3.86-19.36-5.91Z"/><path class="cls-3" d="M392.52,127.34c-3.34-1.33-6.21-2.92-9.27-3.59-4.37-.96-7.07-3.31-8.14-7.53-.35-1.37-.25-2.85-.35-4.28,1.5-.07,3.21-.64,4.45-.12,3.76,1.59,7.35,3.61,10.98,5.45,4.19-5.07,5.03-5.38,9.4-.34,3.72,4.28,6.56,9.34,9.78,14.05l-1.15,.9c-3.61-2.13-7.17-4.33-10.84-6.37-2.89-1.6-2.94-1.51-4.86,1.82Z"/><path class="cls-3" d="M372.42,74.29c-8.07,9.61-18.29,13.32-29.89,14.29-1.87-7.57-1.19-8.54,5.15-10.64,7.86-2.6,15.6-5.58,24.74-3.65Z"/><path class="cls-3" d="M404.02,100.81c-7.67-1.48-14.88-2.88-23.19-4.48,6.42-1.75,2.13-5.48,3.18-9.36,4.96,.9,10.75,.59,14.75,3.11,3.03,1.91,3.78,7.43,5.26,10.73Z"/><path class="cls-3" d="M338.41,79.05v8.45l-20.26,10.9c-3.19-6.45-2.74-6.36,2.14-8.55,5.39-2.42,10.24-6.04,15.33-9.14,.77-.47,1.55-.93,2.79-1.66Z"/><path class="cls-3" d="M373.68,126.98c-6.25-3.64-11.93-6.96-17.67-10.3,2.65-3,9.94-3.68,14.55-.72,3.32,2.13,4.34,5.98,3.12,11.02Z"/><path class="cls-3" d="M319.74,110.91c5.29-9.3,11.32-10.46,17.77-3.4-5.3,4.45-13.29,5.98-17.77,3.4Z"/><path class="cls-3" d="M371.15,112.13c-11.68-.33-13.64-1.55-14.31-8.67,7.96-.55,11.83,1.72,14.31,8.67Z"/><path class="cls-3" d="M304.5,109.75c2.59-2.06,5.48-4.35,9.25-7.35,.81,.35,2.9,1.23,4.99,2.12-2.81,7.22-6.02,8.25-14.25,5.23Z"/><path class="cls-3" d="M333.02,95.18c-5.05,6.71-7.92,7.63-13.32,5.15,4.39-1.7,8.86-3.42,13.32-5.15Z"/><path class="cls-3" d="M189.29,112.84c-.18,.56-.34,1.09-.52,1.6-.16,.15-.31,.3-.45,.46-1.13,1.27-1.71,2.9-1.64,4.58-3.48,6.24-8.88,6.12-24.99,2.56,3.14-6.08,8.09-7.57,14.56-7.17,4.38,.27,8.7-1.29,13.04-2.03Z"/><path class="cls-3" d="M162.08,117.56c-1.84,1.46-3.18,2.53-4.53,3.58-1.93,1.49-5.12,1.42-7.53,.26-.24-.16-.49-.3-.75-.41-.75-.47-1.38-1.08-1.82-1.77-1.08-1.72-2.42-3.3-3.73-5.08,1.53-1.79,8.56-.79,18.36,3.42Z"/><path class="cls-3" d="M156.73,128.66c5.86-4.91,13.8-4.53,23.4,1.11-6.45,5.15-15.97,4.7-23.4-1.11Z"/><path class="cls-3" d="M337.84,122.74c-15.53,3.43-21.11,3.67-24.61-1.9,0-.32,.03-.61,.05-.84,.21-1.84-.37-3.67-1.6-5.05-.4-.44-.85-.83-1.35-1.14-.03-.08-.06-.18-.08-.27,4.33,.74,8.66,2.3,13.04,2.03,6.47-.4,11.42,1.09,14.56,7.17Z"/><path class="cls-3" d="M355.81,114.83c-1.32,1.78-2.65,3.36-3.74,5.08-.17,.28-.37,.53-.6,.77-1.05,.34-1.99,.94-2.74,1.73,0,0,0,0,0,0-2.28,.82-5.01,.74-6.74-.59-1.35-1.05-2.69-2.12-4.53-3.58,9.8-4.21,16.83-5.21,18.36-3.42Z"/><path class="cls-3" d="M342.79,129.36c-2.79,2.19-5.88,3.61-8.99,4.26-.77,.06-1.59,.09-2.47,.09-1.22,0-2.52-.06-3.86-.19-1.4-.13-2.66-.33-3.8-.6h0c-1.53-.59-2.97-1.41-4.27-2.46,9.6-5.64,17.54-6.02,23.39-1.11Z"/></g><path class="cls-1" d="M139.19,122.9c-.19,.05-.25,.02,0-.07v.07Z"/><g><path class="cls-5" d="M368.44,248.67c-.02-.28-.04-.55-.07-.83-1.06-10.85-2.38-21.68-3.26-32.55-1.16-14.29-1.34-29.1,7.18-41.6,2-2.93,4.97-6.56,8.62-7.39,2.3-.52,5.34,0,7.72,0l.6-5.26-32.18-35.51h-3.86c-.8,2.01-4.34,15.13-26.55,13.12-22.2-2.01-20.07-20.73-20.07-20.73h-7.66v-4.17h-5.43v-3.36h-43.74V248.67h118.69Z"/><path class="cls-3" d="M249.75,110.4h-43.74v3.36h-5.43v4.17h-7.66s2.13,18.72-20.07,20.73c-22.2,2.01-25.74-11.12-26.55-13.12h-3.86l-32.18,35.51,.6,5.26h8.14c5.03,0,9.28,9.44,10.9,12.84,3.02,6.33,4.92,13.15,5.61,20.08,.72,7.25-.9,14.09-1.39,21.3-.63,9.43-2.36,18.74-3.23,28.14h118.85V110.4Z"/><path class="cls-3" d="M249.75,248.67v138.26c.06,0,.12,0,.18,0,2.17,0,4.27-.72,6.31-1.43,15.24-5.36,30.28-11.5,43.91-20.04,7.23-4.52,14.1-9.58,20.48-15.16,6.41-5.61,12.5-11.65,17.73-18.31,9.58-12.2,17.75-25.8,23.22-40.16,5.23-13.74,8.13-28.51,6.85-43.16h-118.69Z"/><path class="cls-5" d="M130.91,248.67c-.01,.14-.03,.28-.04,.43-1.98,21.85,5.73,42.55,16.18,61.6,20.31,37.01,56.2,62.36,97.18,75.11,1.8,.56,3.64,1.1,5.53,1.12V248.67h-118.85Z"/></g><g><g><path class="cls-5" d="M190.41,153.83c.99,.91,1.88,1.78,2.83,2.59,.83,.71,1.68,1.39,2.57,2,3.79,2.62,6.59,5.98,7.94,10.45,.9,2.98,.68,5.93-.16,8.88-.76,2.7-1.84,5.27-3.06,7.79-1.66,3.44-3.11,6.96-3.98,10.69-.23,.97-.36,1.97-.55,3.01l-4.45-.2c.11-11.44-.25-22.84-1.08-34.23-.83,11.38-1.18,22.78-1.09,34.21-.12,.02-.22,.04-.31,.05-1.27,.06-2.54,.11-3.81,.17-.24,.01-.4-.02-.42-.32-.14-1.9-.65-3.72-1.23-5.52-.95-2.97-2.17-5.84-3.56-8.64-1.37-2.76-2.5-5.62-3.12-8.65-.92-4.44,.08-8.49,2.59-12.19,1.55-2.29,3.59-4.06,5.84-5.66,1.68-1.2,3.17-2.68,4.73-4.04,.12-.1,.2-.24,.31-.38Z"/><path class="cls-2" d="M185.21,199.6c-.55,0-.7-.35-.72-.64-.14-1.89-.66-3.73-1.21-5.44-.9-2.8-2.06-5.62-3.54-8.59-1.55-3.13-2.58-5.98-3.15-8.74-.9-4.36,0-8.55,2.64-12.46,1.38-2.03,3.21-3.81,5.93-5.75,1.16-.83,2.25-1.82,3.31-2.77,.46-.42,.93-.84,1.4-1.25,.05-.04,.1-.11,.16-.19l.11-.15c.06-.08,.15-.12,.25-.13,.09,0,.19,.03,.26,.09,.3,.28,.6,.56,.89,.83,.66,.62,1.28,1.2,1.93,1.75,.92,.78,1.75,1.43,2.55,1.98,4.13,2.85,6.78,6.33,8.08,10.64,.84,2.77,.79,5.74-.16,9.08-.69,2.42-1.66,4.92-3.08,7.85-1.95,4.03-3.2,7.4-3.96,10.61-.15,.65-.26,1.31-.38,2.01-.05,.32-.11,.65-.17,.98-.03,.17-.14,.3-.36,.29l-4.44-.2c-.19,0-.33-.16-.33-.35,.09-9.6-.16-19.33-.74-28.98-.57,9.52-.82,19.24-.75,28.96,0,.17-.12,.32-.29,.35l-.11,.02c-.09,.02-.17,.03-.24,.03l-1.5,.07c-.77,.03-1.54,.07-2.31,.11-.02,0-.05,0-.07,0Zm-.05-.7s0,0,.08,0c.77-.04,1.54-.07,2.31-.11l1.48-.07c-.08-11.42,.29-22.84,1.1-33.94,.01-.18,.16-.32,.35-.32h0c.18,0,.33,.14,.35,.32,.82,11.26,1.19,22.67,1.09,33.92l3.81,.17c.04-.23,.08-.45,.11-.67,.12-.71,.23-1.38,.39-2.06,.76-3.27,2.04-6.68,4.01-10.76,1.4-2.89,2.36-5.35,3.03-7.73,.91-3.2,.96-6.05,.16-8.69-1.25-4.15-3.81-7.51-7.8-10.27-.81-.56-1.67-1.22-2.6-2.02-.66-.56-1.29-1.15-1.95-1.77-.2-.19-.4-.37-.61-.56-.04,.04-.08,.09-.13,.13-.47,.41-.93,.82-1.39,1.24-1.07,.97-2.18,1.97-3.37,2.82-2.65,1.89-4.42,3.61-5.76,5.57-2.55,3.75-3.4,7.76-2.54,11.93,.56,2.69,1.57,5.5,3.09,8.57,1.5,3.01,2.66,5.85,3.58,8.69,.56,1.75,1.1,3.63,1.24,5.6h-.02Z"/></g><g><path class="cls-5" d="M183.42,199.38l-5.81,.89c-.1-.3-.21-.63-.33-.96-.65-1.8-1.53-3.46-2.91-4.82-.99-.97-2.14-1.67-3.56-1.8-2.77-.24-4.83,1.07-5.79,3.41-.6,1.46-.73,2.97-.54,4.53,.01,.08,0,.16,0,.36-.89-.08-1.76-.11-2.62-.26-5.3-.92-8.32-5.04-8.85-9.57-.61-5.22,1.19-9.47,5.43-12.6,2.3-1.69,4.96-2.3,7.81-2.05,4.66,.42,8.18,2.78,10.97,6.39,2.38,3.07,3.89,6.58,4.9,10.3,.53,1.93,.86,3.9,1.28,5.86,.02,.09,0,.19,0,.31Zm-19.63-16.54l-.09-.04c-.11,.1-.23,.2-.33,.3-.56,.54-1.12,1.08-1.66,1.64-.22,.23-.4,.27-.69,.11-.69-.39-1.39-.74-2.1-1.11-.12-.06-.26-.11-.42-.18,.02,.11,.01,.14,.02,.16,.41,.82,.81,1.65,1.23,2.46,.13,.24,.1,.4-.1,.58-.3,.26-.57,.55-.85,.83-.4,.39-.79,.79-1.25,1.24,.19,.01,.27,.03,.35,.02,.85-.12,1.71-.23,2.55-.38,.29-.05,.44,0,.56,.27,.36,.75,.74,1.49,1.11,2.24,.05,.1,.13,.19,.25,.39,.14-.85,.27-1.59,.39-2.32,.14-.89,.14-.9,1.03-1.05,.14-.02,.28-.04,.42-.07,.62-.1,1.24-.2,1.85-.3-.09-.17-.2-.24-.32-.3-.5-.26-1-.52-1.5-.79-.31-.17-.75-.27-.89-.53-.14-.25,.04-.67,.08-1.01,.01-.1,.03-.19,.05-.29,.1-.62,.19-1.24,.29-1.85Z"/><path class="cls-2" d="M164.49,201.34h-.03c-.28-.03-.56-.05-.84-.07-.59-.04-1.21-.09-1.8-.19-6.01-1.04-8.66-5.78-9.14-9.87-.63-5.39,1.24-9.73,5.57-12.92,2.28-1.67,4.98-2.38,8.05-2.11,4.46,.4,8.13,2.53,11.22,6.52,2.2,2.84,3.82,6.25,4.96,10.42,.37,1.36,.65,2.76,.92,4.11,.12,.59,.24,1.18,.36,1.77,.02,.11,.02,.21,.01,.29v.09c0,.17-.13,.32-.3,.34l-5.81,.89c-.16,.03-.33-.07-.38-.23l-.1-.29c-.07-.21-.15-.44-.23-.66-.72-2.01-1.62-3.5-2.83-4.69-1.06-1.04-2.16-1.6-3.34-1.7-2.54-.22-4.52,.95-5.43,3.19-.55,1.34-.71,2.76-.52,4.35,0,.07,0,.13,0,.23v.16c0,.1-.04,.19-.12,.26-.06,.06-.15,.09-.23,.09Zm.55-24.52c-2.4,0-4.55,.68-6.38,2.03-4.11,3.03-5.89,7.16-5.29,12.27,.45,3.84,2.94,8.3,8.57,9.27,.56,.1,1.13,.14,1.74,.18,.15,.01,.31,.02,.47,.04-.2-1.69-.01-3.2,.57-4.64,1.04-2.55,3.28-3.87,6.14-3.62,1.35,.12,2.59,.73,3.77,1.89,1.29,1.26,2.24,2.83,3,4.95,.08,.23,.16,.46,.23,.67h0l5.22-.79c-.12-.57-.24-1.15-.35-1.72-.27-1.34-.55-2.73-.91-4.06-1.11-4.08-2.69-7.41-4.84-10.18-2.96-3.83-6.47-5.87-10.73-6.25-.4-.04-.8-.05-1.19-.05Zm18.38,22.56h0Zm-21.03-7.67c-.11,0-.22-.06-.29-.16l-.11-.17c-.07-.1-.12-.18-.16-.25l-.19-.37c-.31-.62-.63-1.24-.93-1.87-.03-.07-.05-.09-.05-.09h0s-.04,0-.13,.01c-.65,.12-1.31,.21-1.97,.3l-.59,.08c-.09,.01-.17,0-.26,0h-.16c-.14-.02-.26-.11-.31-.24-.05-.13-.02-.27,.08-.37l1.49-1.48c.2-.21,.41-.41,.62-.6,.04-.04,.06-.06,.06-.07,0,0,0-.03-.04-.09-.32-.61-.62-1.23-.93-1.85l-.3-.62s-.04-.14-.05-.18c-.02-.12,.03-.29,.13-.37,.1-.08,.23-.13,.34-.08l.15,.06c.11,.04,.2,.08,.29,.13l.51,.26c.54,.28,1.07,.55,1.6,.85,.14,.08,.14,.08,.27-.05,.41-.43,.84-.85,1.27-1.26l.4-.39c.08-.08,.16-.15,.25-.22l.1-.09c.11-.1,.26-.12,.39-.05l.08,.04c.13,.07,.21,.21,.19,.36l-.31,1.98c0,.05-.02,.1-.03,.15-.01,.11-.04,.23-.06,.36-.03,.13-.08,.39-.05,.45,.04,.08,.27,.18,.43,.24,.11,.05,.22,.09,.32,.15l1.5,.79c.16,.08,.33,.2,.46,.44,.05,.1,.06,.22,0,.32-.05,.1-.14,.17-.26,.19l-2.27,.37q-.65,.11-.75,.75c-.08,.53-.17,1.04-.27,1.6l-.13,.74c-.02,.14-.13,.25-.27,.28-.02,0-.05,0-.07,0Zm-1.76-3.6c.25,0,.52,.09,.71,.48,.28,.59,.57,1.18,.87,1.76,.08-.47,.16-.92,.23-1.36,.17-1.05,.28-1.16,1.32-1.34l1.44-.23-1.09-.57c-.08-.04-.17-.08-.26-.12-.29-.12-.61-.26-.77-.55-.16-.29-.08-.63-.02-.93,.02-.1,.04-.2,.05-.29,0-.07,.02-.13,.03-.2l.17-1.11-.1,.1c-.42,.41-.84,.82-1.25,1.25-.34,.35-.69,.41-1.11,.17-.52-.29-1.05-.57-1.57-.84l-.09-.05c.29,.59,.58,1.17,.88,1.75,.2,.39,.14,.72-.18,1-.2,.18-.39,.37-.58,.57l-.83,.83c.64-.09,1.29-.18,1.93-.29,.07-.01,.15-.02,.23-.02Z"/></g><g><path class="cls-5" d="M216.6,201.15c.13-1.6,.07-3.08-.37-4.53-.87-2.87-3.22-3.94-5.38-3.88-1.86,.05-3.38,.95-4.66,2.24-1.39,1.41-2.32,3.08-2.67,5.05-.02,.1-.06,.19-.09,.3l-5.8-.9c.17-.93,.33-1.87,.52-2.8,.73-3.52,1.8-6.93,3.49-10.13,1.61-3.04,3.69-5.69,6.64-7.56,2.19-1.39,4.59-2.2,7.18-2.28,3.64-.11,6.69,1.3,9.19,3.9,1.78,1.84,3,4.01,3.36,6.57,.5,3.58,.01,6.97-2.32,9.89-1.73,2.17-4.04,3.35-6.73,3.83-.76,.14-1.53,.2-2.36,.3Zm-1.78-12.34c.16,0,.22,0,.29,0,.85-.12,1.7-.24,2.55-.38,.31-.05,.5,.03,.62,.33,.18,.43,.41,.84,.62,1.25,.21,.41,.42,.82,.67,1.33,.06-.25,.11-.38,.13-.52,.14-.8,.3-1.61,.41-2.42,.04-.27,.15-.37,.39-.4,.45-.06,.89-.12,1.34-.19,.49-.08,.98-.17,1.6-.27-.23-.14-.35-.21-.47-.28-.7-.37-1.39-.75-2.1-1.1-.28-.14-.36-.31-.31-.6,.1-.58,.21-1.17,.3-1.75,.06-.34,.09-.69,.14-1.04l-.17-.1c-.65,.69-1.31,1.37-1.95,2.06-.19,.2-.34,.22-.58,.08-.6-.34-1.22-.65-1.83-.97-.23-.12-.46-.24-.69-.35,0,.2,.05,.32,.11,.45,.36,.73,.72,1.47,1.1,2.19,.12,.23,.1,.37-.09,.54-.59,.56-1.17,1.15-1.75,1.73-.1,.1-.2,.22-.34,.38Z"/><path class="cls-2" d="M216.6,201.5c-.09,0-.18-.03-.24-.1-.08-.07-.11-.18-.11-.28,.14-1.72,.03-3.12-.36-4.41-1.05-3.47-4.13-3.66-5.03-3.63-1.6,.04-3.04,.74-4.42,2.14-1.38,1.4-2.25,3.03-2.57,4.87-.01,.08-.04,.16-.07,.25l-.03,.1c-.05,.16-.21,.26-.39,.24l-5.8-.9c-.09-.01-.18-.07-.23-.14-.05-.08-.08-.17-.06-.26l.16-.88c.12-.64,.23-1.28,.36-1.92,.81-3.94,1.96-7.28,3.52-10.22,1.82-3.44,4.03-5.96,6.76-7.69,2.3-1.47,4.78-2.25,7.35-2.33,3.63-.1,6.78,1.24,9.45,4.01,1.95,2.02,3.11,4.29,3.45,6.76,.57,4.1-.21,7.42-2.39,10.16-1.67,2.1-4,3.43-6.94,3.96-.53,.1-1.06,.15-1.61,.21-.25,.03-.51,.06-.77,.09-.01,0-.03,0-.04,0Zm-5.58-9.11c2.11,0,4.62,1.08,5.54,4.13,.38,1.26,.52,2.62,.42,4.24,.12-.01,.24-.03,.36-.04,.54-.06,1.05-.11,1.57-.21,2.8-.51,4.94-1.72,6.52-3.71,2.05-2.58,2.79-5.73,2.25-9.63-.32-2.32-1.42-4.47-3.26-6.38-2.53-2.62-5.51-3.9-8.93-3.79-2.45,.07-4.8,.82-7,2.22-2.62,1.67-4.75,4.1-6.52,7.43-1.53,2.88-2.66,6.16-3.46,10.03-.13,.63-.25,1.27-.36,1.91l-.1,.54,5.15,.8c.35-1.96,1.28-3.71,2.76-5.21,1.51-1.53,3.11-2.29,4.9-2.34,.06,0,.12,0,.17,0Zm8.56-.69c-.13,0-.25-.07-.31-.19l-.85-1.66c-.16-.31-.32-.62-.46-.94-.05-.13-.07-.15-.25-.12-.68,.11-1.36,.21-2.04,.3l-.52,.07c-.06,0-.12,0-.21,0h-.13c-.14,0-.26-.08-.32-.21-.06-.12-.03-.27,.06-.37l.13-.14c.08-.1,.15-.18,.23-.25l.32-.32c.48-.47,.95-.95,1.44-1.41,.05-.05,.05-.07,.02-.13-.29-.54-.56-1.1-.83-1.65l-.27-.55c-.08-.16-.15-.34-.14-.61,0-.12,.07-.23,.17-.29,.1-.06,.23-.06,.34,0l1.18,.61c.45,.23,.91,.47,1.35,.72,.05,.03,.08,.04,.09,.04,0,0,.02-.02,.06-.06,.47-.51,.94-1,1.41-1.5l.54-.57c.11-.11,.28-.14,.42-.06l.17,.1c.12,.07,.19,.21,.18,.35l-.04,.32c-.03,.24-.06,.49-.1,.73-.09,.59-.2,1.17-.3,1.76-.03,.14-.02,.16,.12,.23,.53,.26,1.05,.53,1.56,.81l.55,.29c.08,.04,.16,.09,.28,.16l.2,.12c.12,.07,.19,.22,.16,.36-.03,.14-.14,.25-.28,.28l-.53,.09c-.38,.07-.72,.13-1.07,.18-.45,.07-.9,.13-1.35,.19-.07,0-.08,.03-.09,.1-.09,.63-.2,1.26-.31,1.89l-.1,.54c-.02,.1-.04,.19-.08,.33l-.06,.21c-.04,.14-.15,.24-.3,.26-.01,0-.03,0-.04,0Zm-1.77-3.62c.37,0,.64,.19,.8,.56,.13,.3,.28,.59,.43,.89l.41,.8,.02-.09c.11-.62,.22-1.24,.31-1.86,.06-.41,.28-.64,.69-.69,.44-.06,.89-.12,1.33-.18,.21-.03,.42-.07,.63-.1l-.16-.09c-.51-.27-1.02-.55-1.54-.8-.41-.2-.58-.53-.5-.97,.1-.58,.2-1.16,.3-1.74,.02-.1,.03-.19,.04-.29l-.02,.02c-.47,.5-.94,.99-1.4,1.49-.29,.32-.62,.37-1,.15-.44-.25-.88-.48-1.33-.71l-.4-.2,.07,.13c.27,.55,.54,1.09,.82,1.63,.19,.37,.14,.67-.15,.95-.48,.46-.95,.93-1.42,1.4h-.02c.63-.08,1.26-.17,1.9-.27,.07-.01,.14-.02,.2-.02Z"/></g><g><path class="cls-5" d="M184.75,208.37c.43,.03,.86,.06,1.3,.08,1.04,.05,2.09,.11,3.13,.14,.29,0,.39,.11,.4,.4,.03,1.38,.07,2.77,.13,4.15,.11,2.48,.34,4.95,.85,7.39,.78-3.92,.95-7.89,.99-11.91,.46-.03,.89-.06,1.32-.08,1.06-.06,2.11-.11,3.17-.17,.24-.01,.4,.01,.45,.3,.62,3.65,2.05,6.97,4.17,9.99,.18,.26,.2,.44,.04,.71-2.29,4.11-5.61,7.11-9.84,9.14-.18,.09-.48,.09-.67,0-4.28-2.01-7.59-5.05-9.83-9.23-.07-.12-.06-.37,.02-.48,2.27-3.1,3.65-6.57,4.29-10.34,0-.01,.01-.02,.06-.09Z"/><path class="cls-2" d="M190.55,228.93c-.17,0-.34-.03-.48-.1-4.4-2.06-7.76-5.22-9.99-9.38-.12-.22-.13-.61,.04-.85,2.16-2.95,3.58-6.38,4.23-10.2,0-.05,.05-.13,.08-.18,.07-.1,.21-.23,.35-.21l.39,.03c.3,.02,.6,.04,.91,.06l.4,.02c.91,.05,1.82,.09,2.72,.12,.48,.01,.72,.26,.73,.74,.03,1.38,.07,2.76,.13,4.14,.09,2.06,.26,3.82,.5,5.43,.51-3.37,.62-6.75,.65-9.93,0-.18,.14-.33,.33-.34l2.44-.14c.69-.04,1.37-.07,2.05-.11,.17,0,.7-.04,.81,.59,.59,3.49,1.98,6.81,4.11,9.85,.26,.37,.28,.69,.06,1.08-2.27,4.07-5.63,7.19-9.99,9.28-.14,.07-.31,.1-.48,.1Zm-5.55-20.19c-.69,3.85-2.14,7.3-4.31,10.28,0,0,0,.09,.01,.11,2.15,4.02,5.4,7.08,9.67,9.07,.09,.04,.28,.04,.37,0,4.23-2.03,7.49-5.05,9.68-8.99,.08-.14,.09-.18-.03-.34-2.2-3.13-3.62-6.54-4.23-10.13,.03-.01,0-.02-.08-.01-.69,.04-1.37,.08-2.06,.11l-2.11,.12c-.05,3.73-.21,7.71-.99,11.65-.03,.16-.17,.28-.34,.28h0c-.16,0-.31-.11-.34-.28-.45-2.14-.73-4.5-.86-7.45-.06-1.39-.1-2.77-.13-4.16,0-.02,0-.04,0-.06,0,0-.03,0-.06,0-.91-.03-1.83-.07-2.74-.12l-.4-.02c-.31-.02-.61-.04-.92-.06h-.12Z"/></g><g><path class="cls-5" d="M168.94,212.19c.83,.22,1.52,.48,2.24,.58,2.38,.33,4.27-.63,5.79-2.4,.69-.8,1.18-1.73,1.48-2.74,.08-.25,.2-.31,.43-.28,1.48,.22,2.95,.44,4.43,.66,.05,0,.11,.02,.22,.05-.12,.51-.23,1.02-.36,1.51-.51,1.96-1.12,3.88-2.21,5.61-.88,1.4-1.97,2.58-3.61,3.05-3.14,.89-6.1-.18-7.6-3.64-.33-.77-.54-1.59-.81-2.41Z"/><path class="cls-2" d="M175.3,218.89c-2.58,0-4.7-1.46-5.87-4.15-.24-.54-.41-1.11-.58-1.67-.08-.26-.16-.51-.24-.77-.04-.12,0-.25,.08-.35,.09-.09,.22-.13,.34-.1,.27,.07,.53,.15,.78,.22,.49,.15,.96,.29,1.42,.35,2.11,.29,3.91-.46,5.48-2.28,.64-.74,1.11-1.62,1.41-2.61,.12-.4,.4-.58,.81-.52l4.43,.66s.09,.02,.15,.03l.1,.02c.19,.04,.3,.23,.26,.42l-.12,.5c-.08,.35-.16,.69-.25,1.03-.49,1.89-1.11,3.89-2.25,5.71-1.1,1.76-2.31,2.77-3.81,3.2-.74,.21-1.46,.31-2.15,.31Zm-5.84-6.19c.02,.06,.03,.11,.05,.17,.17,.56,.33,1.09,.55,1.59,1.35,3.1,3.97,4.35,7.19,3.44,1.33-.37,2.41-1.29,3.41-2.9,1.09-1.74,1.68-3.68,2.17-5.51,.09-.33,.16-.67,.24-1.01l.03-.14-4.28-.65c-.37,1.12-.89,2.08-1.59,2.9-1.72,1.99-3.76,2.84-6.1,2.52-.51-.07-1-.22-1.52-.37-.05-.01-.1-.03-.15-.04Z"/></g><g><path class="cls-5" d="M197.82,208.04l4.99-.72c.62,2.01,1.72,3.68,3.62,4.72,1.93,1.05,3.9,.93,5.89,.1-.39,2.67-2.15,5.63-5.07,6.22-2.67,.54-4.77-.41-6.37-2.55-1.28-1.71-1.98-3.7-2.55-5.73-.19-.66-.34-1.33-.52-2.04Z"/><path class="cls-2" d="M205.83,218.86c-2.06,0-3.81-.95-5.22-2.84-1.35-1.81-2.05-3.88-2.61-5.84-.13-.46-.24-.92-.35-1.39l-.16-.66c-.02-.1,0-.2,.05-.28,.06-.08,.14-.14,.24-.15l4.99-.72c.17-.02,.33,.08,.38,.24,.65,2.13,1.78,3.61,3.46,4.52,1.69,.92,3.51,.95,5.59,.09,.12-.05,.25-.03,.35,.05,.1,.08,.15,.2,.13,.32-.4,2.79-2.21,5.88-5.35,6.51-.51,.1-1.01,.16-1.49,.16Zm-7.58-10.53l.07,.3c.11,.46,.22,.92,.35,1.36,.54,1.9,1.21,3.9,2.5,5.62,1.59,2.12,3.55,2.92,6.02,2.42,2.56-.52,4.17-3.02,4.69-5.34-2.04,.71-3.88,.6-5.6-.34-1.77-.96-2.98-2.48-3.7-4.64l-4.32,.63Z"/></g><g><path class="cls-5" d="M204.95,202.61c-.52-.21-1.06-.39-1.61-.51-3.38-.75-6.82-.94-10.27-1-2.82-.05-5.65,.05-8.48,.15-2.23,.07-4.45,.31-6.63,.78-.77,.16-1.54,.4-2.24,.74-1.05,.51-1.04,1.51-.02,2.08,.32,.18,.66,.31,1.01,.42,2.09,.63,4.26,.85,6.42,1.01,2.44,.17,4.88,.24,7.32,.35,4.01-.09,7.32-.18,11.57-.85,.98-.16,1.94-.46,2.89-.76,.55-.17,1.05-.52,1.06-1.19,0-.67-.49-.99-1.04-1.2Z"/><path class="cls-2" d="M190.48,206.96c-.76-.03-1.5-.06-2.24-.09-1.68-.07-3.41-.13-5.12-.25-2.45-.17-4.49-.41-6.5-1.02-.42-.13-.78-.27-1.08-.45-.61-.35-.95-.86-.94-1.4,.02-.53,.37-1,.98-1.3,.66-.32,1.41-.57,2.32-.77,2.08-.45,4.27-.7,6.69-.78l.47-.02c2.63-.09,5.35-.18,8.02-.13,3.11,.05,6.76,.21,10.33,1.01,.51,.11,1.05,.29,1.66,.53h0c.31,.12,1.27,.5,1.26,1.53,0,.71-.47,1.25-1.3,1.52-.9,.29-1.92,.61-2.95,.77-4.39,.7-7.9,.77-11.62,.86Zm1.13-5.53c-2.18,0-4.38,.07-6.52,.14l-.47,.02c-2.38,.08-4.53,.33-6.57,.77-.85,.18-1.55,.41-2.16,.71-.37,.18-.58,.43-.59,.69,0,.28,.2,.56,.58,.78,.26,.15,.57,.28,.94,.39,1.95,.59,3.94,.82,6.35,.99,1.69,.12,3.42,.19,5.1,.25,.74,.03,1.48,.06,2.22,.09,3.67-.08,7.16-.16,11.5-.85,.97-.15,1.97-.47,2.84-.75,.81-.26,.81-.71,.81-.86,0-.39-.23-.65-.82-.88h0c-.57-.23-1.08-.39-1.56-.49-3.51-.78-7.12-.94-10.2-.99-.49,0-.98-.01-1.47-.01Z"/></g></g><g><path class="cls-4" d="M351.93,220.29c-.29-1.28-1.55-2.38-3.17-2.6-.2-.03-.31-.11-.42-.24-.55-.68-1.09-1.36-1.69-2.02-.68-.76-1.38-1.5-2.1-2.22-.67-.66-1.37-1.3-2.09-1.93-.8-.7-1.54-1.3-2.37-2,.09-.06,.26-.2,.37-.28,.58-.43,1.07-.81,1.58-1.29,1.02-.94,2.13-1.69,3.08-2.66,1.54-1.59-1.15-5.05-5.43-2.2l-2.55,1.96c-.5,.41-1.29,1.08-1.61,1.24-.9-.43-1.43-.72-2.3-1.19-2.34-1.24-4.64-2.54-6.92-3.86-6.66-3.87-13.13-8.07-19.47-12.45-6.25-4.32-12.2-9.11-18.45-13.38-7.57-5.16-14.32-11.52-19.94-18.76,.16,6.89,4.8,13.03,9.5,17.65,5.18,5.09,10.82,9.68,16.69,13.95,10.09,7.34,20.77,13.91,31.64,20,1.14,.64,2.44,1.61,3.72,1.92,.03,0,.11,.04,.13,0-.08,.1-.13,.17-.18,.24-.37,.54-.8,1.06-1.08,1.62-1.01,1.97-1.05,3.99-.06,6.03,.61,1.28,1.5,2.42,2.59,3.46,1.36,1.31,2.9,2.43,4.68,3.32,1.47,.73,3.03,1.25,4.7,1.38,2.77,.22,5.24-.37,7.26-1.95,.09-.06,.23-.1,.35-.1,.65,0,1.25-.13,1.8-.39,1.35-.65,2.02-1.96,1.73-3.23Zm-7.41,.65c0,.07-.1,.17-.19,.2-1.32,.55-2.65,.42-3.98-.1-1.28-.49-2.37-1.21-3.4-2.02-.91-.72-1.69-1.5-2.18-2.47-.72-1.35-.54-2.65,.37-3.92,.77,.49,1.54,.94,2.28,1.43,1.04,.72,2.07,1.43,3.06,2.19,1.24,.95,2.34,2,3.46,3.04,.56,.52,.68,1.03,.58,1.64Z"/><g><path class="cls-3" d="M350.52,166.85c-.12-.25-.33-.45-.56-.62-.45-.34-.91-.67-1.47-.77-.57-.1-1.11,.05-1.64,.21-.51,.15-1.06,.3-1.54,.52-1.15,.41-2.33,.73-3.52,1.03-.59,.15-1.19,.3-1.78,.45-.48,.12-1.17,.47-1.68,.28-.18-.07-.34-.25-.33-.45,.01-.28,.21-.53,.36-.77,.18-.29,.35-.58,.52-.86,.15-.25,.29-.49,.44-.74,.44-.76,.88-1.51,1.32-2.27s.88-1.51,1.32-2.26c.35-.6,.79-1.23,.73-1.97-.04-.55-.36-1.05-.77-1.44-1.19-1.12-2.69-.79-3.94-.09-.68,.38-1.03,1.35-1.43,2.1-2.16,3.96-3.77,8.35-6.53,11.81l-.22,.18-.62,.53-1,.84-1.35,1.14-1.66,1.4-1.95,1.64-2.2,1.86-2.42,2.05-2.62,2.21-2.78,2.35-2.91,2.46-3.01,2.55-3.08,2.61-3.12,2.64-3.13,2.65-3.11,2.63-3.06,2.59-2.98,2.52-2.87,2.42-2.72,2.3-2.55,2.15-2.34,1.98-2.11,1.78-1.84,1.56-1.54,1.31-1.22,1.03-.86,.73c-.27,.22-.58,.42-.77,.71-.25,.37-.13,.76,.05,1.14,.51,1.15,1.32,2.15,2.27,2.97,.02,.01,.04,.03,.06,.03,.03,0,.05-.01,.08-.03,.61-.43,1.23-.84,1.8-1.32,11.06-9.26,22.33-18.29,33.05-27.91,3.93-3.5,8.02-6.86,12.12-10.19,3.85-3.13,7.51-6.54,11.63-9.36,1-.69,2.04-1.34,3.11-1.92,2.8-1.53,5.83-2.63,8.88-3.62,1.02-.33,2.05-.59,3.08-.9,1-.3,2-.64,2.89-1.16,.56-.33,1.08-.76,1.4-1.32,.14-.24,.24-.51,.26-.78,.01-.19-.02-.39-.11-.58Z"/><path class="cls-2" d="M272.33,226.3h-.02c-.13-.01-.22-.09-.25-.12-1.03-.88-1.85-1.95-2.36-3.09-.14-.31-.4-.9-.02-1.47,.18-.26,.42-.45,.64-.62,.07-.05,.14-.11,.2-.16l59.28-50.08c1.8-2.27,3.16-5.08,4.47-7.79,.63-1.3,1.28-2.64,1.98-3.92,.08-.15,.16-.31,.24-.48,.34-.69,.69-1.4,1.33-1.76,1.72-.97,3.22-.92,4.35,.14,.52,.49,.84,1.08,.88,1.67,.06,.78-.33,1.43-.67,2l-.1,.17c-.34,.58-.68,1.17-1.02,1.75l-1.61,2.77c-.14,.25-.29,.5-.44,.74-.17,.29-.35,.58-.52,.87l-.09,.14c-.1,.16-.21,.32-.21,.46,0,.02,.04,.09,.1,.11,.27,.1,.7-.04,1.07-.16,.14-.05,.28-.09,.4-.12l1.78-.45c.97-.25,2.24-.58,3.48-1.02,.39-.18,.84-.31,1.28-.44l.27-.08c.61-.18,1.16-.33,1.8-.22,.63,.11,1.15,.47,1.62,.84,.31,.24,.52,.48,.65,.74h0c.12,.23,.17,.49,.15,.76-.02,.3-.12,.61-.3,.93-.31,.55-.83,1.04-1.53,1.45-.95,.56-2.03,.91-2.97,1.19-.43,.13-.86,.25-1.29,.37-.6,.17-1.19,.33-1.78,.53-2.73,.88-5.91,2-8.82,3.6-1.01,.55-2.01,1.17-3.08,1.91-2.81,1.93-5.45,4.17-8.01,6.34-1.19,1.01-2.38,2.02-3.59,3-3.74,3.04-8.07,6.58-12.1,10.18-7.72,6.93-15.87,13.67-23.75,20.19-3.11,2.57-6.22,5.14-9.31,7.73-.47,.4-.97,.75-1.46,1.09l-.37,.25c-.06,.05-.2,.09-.29,.09Zm67.77-69.5c-.58,0-1.23,.2-1.95,.6-.44,.25-.75,.87-1.04,1.46-.09,.17-.17,.34-.26,.5-.69,1.27-1.34,2.6-1.96,3.89-1.33,2.75-2.7,5.59-4.6,7.97l-3.23,2.74-56.1,47.39c-.07,.06-.15,.12-.22,.18-.19,.15-.37,.29-.49,.46-.13,.19-.11,.39,.07,.8,.44,.99,1.15,1.93,2.04,2.72l.22-.15c.48-.33,.97-.67,1.41-1.05,3.09-2.59,6.2-5.16,9.31-7.74,7.87-6.51,16.01-13.25,23.73-20.17,4.05-3.61,8.38-7.16,12.13-10.2,1.21-.98,2.39-1.99,3.58-2.99,2.57-2.18,5.23-4.44,8.07-6.39,1.08-.74,2.11-1.38,3.14-1.94,2.97-1.63,6.19-2.76,8.94-3.65,.6-.19,1.2-.36,1.81-.53,.43-.12,.85-.24,1.27-.37,.9-.27,1.93-.61,2.82-1.13,.59-.35,1.02-.75,1.27-1.19,.13-.23,.2-.44,.21-.63,0-.15-.02-.28-.08-.4h0c-.08-.16-.23-.33-.46-.5-.42-.32-.84-.62-1.32-.7-.48-.08-.94,.03-1.48,.2l-.28,.08c-.42,.12-.85,.25-1.21,.42-1.3,.46-2.59,.8-3.58,1.05l-1.78,.45c-.11,.03-.23,.07-.35,.11-.46,.15-1.03,.35-1.53,.16-.33-.12-.57-.45-.55-.79,.01-.33,.19-.59,.33-.81l.08-.13c.18-.29,.35-.57,.52-.86,.15-.24,.29-.49,.44-.74l1.61-2.77c.34-.59,.68-1.17,1.02-1.76l.11-.18c.31-.51,.62-1.03,.58-1.59-.03-.41-.27-.84-.67-1.22-.45-.43-.98-.64-1.58-.64Z"/></g></g><g><g><path class="cls-5" d="M325.29,282.28c-3.11-5.78-6.97-11.26-10.53-16.81-1.55-2.41-3.21-4.65-6.36-4.58-7.58,.18-11.43,9.17-14.35,14.84-9.36,18.18-16.17,37.87-22.5,57.29-.92,2.82-1.82,5.64-2.7,8.48-.74,2.37-2.09,5.25-2.09,7.78,.24,.34,.78,.33,1.12,.1s.54-.62,.72-1c4.62-9.42,8.94-18.98,13.4-28.47,0-.43,.55-1.18,.74-1.58,.29-.62,.58-1.24,.86-1.87,.55-1.2,1.09-2.4,1.63-3.6,1.03-2.31,2.06-4.63,3.02-6.97,1.6-3.89,3.35-7.8,5.84-11.21,1.27-1.74,2.76-3.33,4.5-4.61,.53,1.1,1.33,2.73,2.23,4.59,2.05-2.39,3.33-3.87,4.81-5.59,1.49,1.91,2.62,3.36,3.96,5.09,1.56-1.79,2.78-3.2,4.21-4.84,1.44,1.76,2.68,3.27,4.18,5.11,1.41-1.96,2.56-3.55,4.21-5.84l6.65,9.36c1.54,2.17,3.02,4.38,4.4,6.65,.62,1.01,1.19,2.06,1.93,2.99,.46,.58,1.05,1.08,.8-.05-1.65-7.34-5.17-14.31-8.5-21.02-.71-1.43-1.44-2.85-2.2-4.26Z"/><path class="cls-2" d="M267.33,349.89c-.33,0-.65-.13-.85-.41-.04-.06-.06-.13-.06-.2,0-1.92,.76-4.06,1.44-5.94,.24-.67,.47-1.32,.67-1.94,.88-2.84,1.79-5.69,2.7-8.48,5.85-17.95,12.9-38.67,22.52-57.34,.24-.47,.49-.97,.75-1.48,2.85-5.65,6.74-13.38,13.9-13.55,3.3-.08,5.03,2.2,6.66,4.74,.95,1.48,1.93,2.96,2.9,4.44,2.63,4,5.36,8.14,7.64,12.39,.73,1.35,1.45,2.75,2.21,4.27l.24,.49c3.27,6.59,6.66,13.41,8.29,20.61,.06,.28,.19,.86-.21,1.06-.32,.15-.69-.07-1.2-.72-.6-.76-1.09-1.59-1.57-2.39l-.38-.63c-1.32-2.16-2.75-4.33-4.39-6.63l-6.36-8.97-3.92,5.44c-.06,.09-.16,.14-.27,.14-.09,0-.21-.04-.28-.13l-3.92-4.79-3.93,4.53c-.07,.08-.17,.13-.27,.12-.1,0-.2-.05-.27-.13l-3.7-4.75-4.54,5.27c-.08,.09-.19,.13-.31,.12-.12-.02-.22-.09-.27-.19l-2.05-4.21c-1.45,1.12-2.83,2.56-4.09,4.29-2.56,3.49-4.34,7.58-5.8,11.13-.99,2.42-2.04,4.77-3.03,6.98-.54,1.2-1.08,2.4-1.63,3.6-.29,.62-.57,1.25-.86,1.87-.06,.13-.15,.29-.26,.47-.17,.28-.44,.76-.44,.96,0,.05-.01,.1-.03,.15-1.46,3.11-2.91,6.24-4.36,9.36-2.92,6.29-5.93,12.78-9.04,19.12-.18,.37-.41,.84-.84,1.13-.21,.14-.48,.23-.74,.23Zm-.22-.75c.15,.1,.41,.06,.58-.05,.28-.19,.45-.55,.61-.86,3.1-6.33,6.12-12.82,9.04-19.1,1.44-3.1,2.88-6.2,4.34-9.3,.04-.37,.3-.82,.53-1.22,.09-.16,.18-.3,.23-.41,.29-.62,.58-1.24,.86-1.86,.55-1.2,1.09-2.4,1.63-3.6,.99-2.2,2.03-4.55,3.02-6.96,1.48-3.59,3.28-7.72,5.89-11.28,1.4-1.91,2.94-3.49,4.58-4.69,.08-.06,.19-.08,.29-.06,.1,.02,.18,.09,.23,.19l2,4.12,4.47-5.19c.07-.08,.19-.12,.27-.12,.1,0,.2,.05,.27,.13l3.7,4.75,3.93-4.52c.07-.08,.16-.11,.27-.12,.1,0,.2,.05,.26,.13l3.9,4.76,3.94-5.47c.07-.09,.17-.14,.28-.14h0c.11,0,.22,.05,.28,.15l6.65,9.36c1.64,2.31,3.09,4.5,4.41,6.68l.38,.64c.47,.78,.95,1.59,1.52,2.31,.06,.08,.12,.15,.18,.21-1.61-7.11-4.97-13.88-8.22-20.42l-.24-.49c-.75-1.52-1.47-2.91-2.2-4.25h0c-2.27-4.22-4.99-8.34-7.61-12.33-.98-1.48-1.95-2.96-2.9-4.45-1.58-2.46-3.15-4.51-6.06-4.42-6.74,.16-10.53,7.68-13.3,13.17-.26,.51-.51,1.01-.75,1.49-9.59,18.63-16.63,39.31-22.48,57.24-.91,2.79-1.81,5.64-2.69,8.47-.19,.63-.43,1.29-.68,1.97-.67,1.87-1.36,3.8-1.4,5.57Z"/></g><g><path class="cls-5" d="M313.96,330.7c-5.09,.96-10.12,2.41-15.18,3.6-3.76,.9-7.58,1.55-11.25,2.79-3.04,1.03-6.09,2.44-8.37,4.76-2.31,2.35-3.43,5.46-3.5,8.73l22.17-10.02c3.69-1.67,7.39-3.34,11.08-5.01,3.02-1.37,8.02-3.1,10.31-5.7-.06,.06-.58,.03-.68,.05-.26,.05-.52,.12-.79,.16-.64,.1-1.28,.2-1.93,.31s-1.24,.22-1.86,.33Z"/><path class="cls-2" d="M275.66,350.92c-.07,0-.13-.02-.19-.06-.1-.07-.16-.18-.16-.3,.08-3.55,1.32-6.65,3.6-8.97,1.98-2.02,4.68-3.56,8.51-4.84,2.6-.88,5.3-1.47,7.91-2.04,1.13-.25,2.25-.49,3.37-.76,1.75-.41,3.49-.85,5.23-1.29,3.26-.83,6.62-1.68,9.97-2.31,.62-.12,1.24-.23,1.87-.33,.64-.11,1.29-.21,1.93-.31,.16-.02,.31-.06,.46-.09,.11-.02,.21-.05,.32-.07,.05,0,.16-.01,.29-.01,.08,0,.23,0,.3,0,.12-.06,.27-.04,.38,.05,.14,.13,.16,.35,.03,.49h0c-1.91,2.17-5.59,3.73-8.54,4.98-.68,.29-1.32,.56-1.88,.81l-33.25,15.03s-.09,.03-.14,.03Zm38.3-20.22l.06,.34c-3.32,.63-6.68,1.48-9.92,2.3-1.75,.44-3.49,.89-5.24,1.3-1.12,.27-2.25,.52-3.38,.76-2.59,.57-5.28,1.15-7.84,2.02-3.71,1.25-6.33,2.74-8.23,4.67-2.03,2.07-3.2,4.8-3.38,7.94l32.74-14.8c.57-.26,1.22-.53,1.9-.82,2.56-1.08,5.67-2.39,7.6-4.1-.15,.03-.31,.07-.46,.09-.64,.1-1.28,.2-1.92,.31-.62,.11-1.24,.22-1.86,.33l-.06-.34Z"/></g></g><g><path class="cls-3" d="M188.5,299.18c.79-.09,1.58-.22,2.36-.38,.52-.1,4.27-1.48,2.7-2.44-.15-.09-.33-.1-.5-.1-3.41-.1-6.84,.29-10.16,1.09-.45,.11-1.02,.18-1.28-.19-.19-.27-.12-.64-.03-.97,.95-3.65,2.26-7.13,4.21-10.38-3.53-.54-7.11-1.01-10.68-1.1-.49-.01-1.04,0-1.4,.35-.45,.43-.36,1.22,.06,1.68s1.07,.64,1.69,.69,1.25,0,1.86,.09,1.25,.36,1.58,.89c1.15,1.84-1.49,3.61-2.58,4.63-2.49,2.34-5.61,6.14-9.2,6.61-4.87,.61-8.71-4.79-9.74-8.92-.96-3.83-.7-8.44,.65-12.15,3.41-9.33,12.87-15.56,22.15-17.97,.51-.13,1.05-.25,1.56-.13,1.09,.27,1.61,1.54,1.67,2.66s-.16,2.28,.18,3.35c.07,.21,.16,.43,.35,.54,.52,.3,1.04-.4,1.22-.98,.78-2.48,1.25-5.05,1.41-7.65-7.16,.42-14.31,2.39-20.31,6.32-5.17,3.38-9.59,8.33-11.79,14.16-3.19,8.45,.28,23.4,11.68,22.33,2.5-.23,4.88-1.26,6.92-2.73,.94-.68,1.89-2.06,3.08-2.28,1.6-.29,1.96,2.12,3.07,2.76,.41,.23,.89,.29,1.36,.33,2.64,.22,5.29,.17,7.93-.11Z"/><path class="cls-2" d="M165,301.61c-3.41,0-6.33-1.47-8.49-4.29-3.58-4.69-4.6-12.67-2.38-18.56,2.11-5.58,6.34-10.67,11.92-14.32,5.69-3.72,12.77-5.93,20.48-6.38,.1,0,.2,.03,.27,.1,.07,.07,.11,.17,.1,.27-.15,2.62-.63,5.22-1.42,7.73-.14,.45-.48,1.04-.98,1.23-.26,.1-.51,.08-.75-.06-.31-.18-.44-.5-.51-.73-.24-.76-.22-1.55-.19-2.32,0-.37,.02-.75,0-1.11-.06-1-.51-2.12-1.41-2.34-.43-.11-.9,0-1.39,.13-8.23,2.14-18.31,7.92-21.91,17.75-1.33,3.64-1.58,8.21-.64,11.94,.96,3.84,4.61,9.25,9.36,8.66,2.83-.37,5.37-2.91,7.61-5.15,.48-.48,.95-.95,1.39-1.37,.17-.16,.37-.33,.59-.52,1.45-1.24,2.69-2.46,1.93-3.67-.32-.51-.97-.67-1.33-.73-.33-.05-.67-.05-1.03-.06-.27,0-.54,0-.82-.03-.85-.07-1.49-.34-1.91-.81-.52-.57-.66-1.58-.05-2.17,.45-.43,1.08-.46,1.65-.44,3.74,.09,7.52,.61,10.72,1.1,.11,.02,.21,.09,.26,.2,.05,.1,.04,.23-.02,.33-1.77,2.96-3.14,6.33-4.17,10.29-.07,.27-.12,.54-.02,.68,.11,.16,.42,.18,.92,.06,3.43-.83,6.87-1.2,10.25-1.1,.18,0,.44,.01,.68,.16,.53,.33,.58,.71,.53,.97-.22,1.17-3.09,2.07-3.35,2.11-.75,.16-1.55,.28-2.38,.38h0c-2.76,.29-5.45,.32-7.99,.11-.53-.04-1.05-.11-1.51-.37-.51-.29-.86-.86-1.2-1.41-.56-.9-.94-1.44-1.64-1.31-.7,.13-1.34,.75-1.95,1.35-.34,.33-.66,.64-.99,.88-2.22,1.6-4.67,2.56-7.09,2.79-.39,.04-.78,.06-1.17,.06Zm21.18-42.84c-7.43,.49-14.26,2.65-19.75,6.24-5.46,3.57-9.6,8.54-11.65,13.99-2.11,5.59-1.11,13.45,2.28,17.9,2.24,2.94,5.37,4.31,9.03,3.97,2.29-.21,4.62-1.14,6.75-2.66,.29-.21,.59-.5,.91-.81,.66-.64,1.41-1.37,2.31-1.53,1.22-.22,1.85,.8,2.36,1.63,.31,.5,.6,.96,.95,1.17,.34,.19,.77,.24,1.22,.28,2.49,.21,5.14,.18,7.86-.1,.81-.1,1.59-.22,2.32-.37,.59-.11,2.7-1.01,2.8-1.56,.02-.09-.13-.2-.22-.25-.08-.05-.22-.05-.33-.05-3.31-.1-6.69,.27-10.07,1.08-.3,.07-1.21,.29-1.65-.33-.3-.43-.16-.97-.09-1.26,1-3.83,2.3-7.12,3.99-10.03-3.07-.47-6.62-.93-10.13-1.02-.42-.01-.89,0-1.15,.25-.31,.3-.22,.88,.08,1.2,.3,.33,.79,.52,1.46,.58,.26,.02,.51,.03,.77,.03,.36,0,.74,.01,1.12,.07,.83,.12,1.48,.49,1.82,1.05,1.14,1.82-.79,3.47-2.07,4.57-.21,.18-.41,.35-.57,.5-.44,.41-.9,.87-1.38,1.35-2.2,2.2-4.95,4.95-8.02,5.35-5.19,.65-9.1-5.09-10.12-9.18-.97-3.86-.71-8.59,.66-12.35,3.69-10.08,13.98-16,22.39-18.18,.56-.14,1.15-.27,1.73-.13,1.32,.33,1.87,1.81,1.93,2.97,.02,.39,.01,.78,0,1.17-.02,.74-.04,1.44,.16,2.09,.06,.19,.12,.3,.2,.34,.05,.03,.09,.03,.15,.01,.2-.08,.45-.43,.56-.79,.73-2.33,1.19-4.74,1.36-7.17Zm2.32,40.4h0Z"/></g><g><path class="cls-3" d="M209.22,311.59c-.41-.84-.96-1.63-1.57-2.33-3.25-3.71-7.74-6.03-12.22-7.9-1.55-.65-3.48-1.15-4.76-2.28-1.66-1.45-3.39-4.15-2.61-6.44,.33-.98,1.13-1.72,1.95-2.34,3.08-2.35,6.94-3.65,10.81-3.64,4.14,0,3.98,3.1,4.45,6.38,.03,.24,.07,.5,.23,.69,.36,.46,1.11,.31,1.59-.02,1.13-.76,1.67-2.13,2.01-3.44,.45-1.72,.67-3.49,.66-5.27,0-.48-11.3,.28-12.32,.4-3.62,.44-7.61,1.12-10.59,3.4-5.24,3.99-2.02,11.48,2.24,14.89,4.58,3.65,10.57,4.48,14.81,8.75,1.72,1.73,.42,5.37-.7,7.09-1.08,1.68-2.75,3.28-4.52,4.23-1.68,.91-3.66,1.16-5.29,2.15-1.46,.89-2.54,2.48-4.28,2.86-3.67,.81-8.3-3.58-8.29-7.18,0-1.65,.88-3.19,1.92-4.47s2.29-2.4,3.24-3.75c-3.65,.46-6.89,3.28-7.86,6.83-.54,1.99-.39,4.22,.67,5.99,.9,1.51,2.37,2.6,3.98,3.31,4.02,1.77,8.77,1.23,12.79-.53,3.3-1.44,6.2-3.63,8.93-5.95,2.28-1.94,5.02-4.03,5.49-7.19,.22-1.45-.12-2.91-.77-4.24Z"/><path class="cls-2" d="M188.2,330.95c-1.99,0-3.88-.37-5.57-1.12-1.29-.57-3.05-1.63-4.14-3.45-1.05-1.77-1.31-4.05-.71-6.26,1-3.69,4.36-6.6,8.15-7.08,.14-.02,.27,.05,.34,.17,.07,.12,.07,.27-.01,.38-.58,.82-1.26,1.55-1.92,2.27-.45,.48-.91,.99-1.33,1.5-1.22,1.5-1.84,2.92-1.84,4.25,0,1.74,1.18,3.82,3.03,5.3,1.61,1.3,3.37,1.86,4.84,1.53,1.01-.22,1.79-.9,2.62-1.62,.49-.42,.99-.86,1.55-1.2,.9-.55,1.9-.88,2.87-1.2,.82-.27,1.68-.55,2.44-.96,1.67-.9,3.31-2.44,4.4-4.11,.95-1.46,2.37-5.02,.74-6.66-2.29-2.3-5.17-3.62-7.96-4.89-2.33-1.06-4.73-2.16-6.82-3.83-3.03-2.42-5.13-6.44-5.09-9.77,.03-2.3,1.01-4.26,2.85-5.66,2.97-2.26,6.93-3,10.76-3.47,.11-.01,11.88-.96,12.58-.35,.07,.07,.13,.19,.13,.29,.01,1.81-.22,3.61-.67,5.36-.3,1.14-.85,2.76-2.15,3.64-.64,.43-1.58,.56-2.06-.06-.21-.27-.26-.61-.3-.86-.05-.37-.1-.74-.14-1.11-.35-2.88-.6-4.96-3.96-4.97h-.03c-3.79,0-7.54,1.27-10.56,3.57-.68,.52-1.51,1.24-1.83,2.18-.7,2.05,.81,4.58,2.51,6.07,.92,.8,2.2,1.28,3.45,1.75,.42,.16,.83,.31,1.21,.47,4.17,1.74,8.89,4.05,12.35,7.99,.66,.76,1.21,1.56,1.62,2.4h0c.74,1.49,1.01,3.03,.8,4.44-.46,3.06-2.93,5.14-5.11,6.98l-.5,.43c-2.47,2.1-5.47,4.46-9.02,6.01-2.51,1.1-5.08,1.65-7.5,1.65Zm-3.04-17.06c-3.16,.74-5.85,3.28-6.7,6.42-.55,2.03-.32,4.11,.63,5.72,.99,1.66,2.62,2.64,3.82,3.17,3.57,1.58,8.13,1.38,12.51-.53,3.47-1.52,6.42-3.83,8.85-5.9l.51-.43c2.09-1.76,4.45-3.75,4.87-6.55,.19-1.27-.06-2.67-.74-4.03h0c-.39-.79-.9-1.54-1.52-2.25-3.36-3.84-8-6.1-12.09-7.81-.38-.16-.78-.31-1.19-.46-1.3-.49-2.65-.99-3.66-1.87-1.87-1.63-3.51-4.46-2.71-6.81,.38-1.12,1.3-1.93,2.06-2.51,3.14-2.39,7.04-3.71,10.98-3.71h.04c3.98,0,4.3,2.72,4.65,5.58,.04,.36,.09,.73,.14,1.1,.03,.23,.06,.41,.16,.53,.21,.27,.75,.16,1.12-.09,1.11-.75,1.6-2.21,1.87-3.25,.42-1.62,.64-3.28,.65-4.95-1.51-.21-10.81,.38-11.93,.52-3.74,.45-7.59,1.17-10.42,3.33-1.69,1.29-2.56,3.01-2.58,5.12-.03,3.13,1.95,6.93,4.83,9.22,2.03,1.62,4.39,2.7,6.68,3.74,2.84,1.3,5.79,2.64,8.16,5.04,1.86,1.87,.59,5.61-.65,7.53-1.14,1.77-2.88,3.39-4.65,4.35-.81,.44-1.7,.73-2.55,1.01-.97,.32-1.89,.63-2.72,1.13-.51,.31-.97,.71-1.46,1.13-.86,.74-1.74,1.51-2.93,1.77-1.67,.37-3.65-.24-5.43-1.67-2-1.61-3.29-3.9-3.28-5.84,0-1.49,.68-3.06,2-4.69,.43-.53,.91-1.04,1.36-1.53,.45-.48,.91-.98,1.33-1.5Z"/></g><g><path class="cls-3" d="M228.13,340.83c-.42-.35-.22-1.28-.17-2.01,.05-.85,.15-1.69,.22-2.54,.15-1.76,.37-3.51,.65-5.25,.99-6.11,2.75-12.07,5.44-17.65,.7-1.47,1.46-2.92,2.27-4.33,.75-1.3,1.83-2.57,2.42-3.93,.5-1.14,.02-2.41-1.23-2.75-.7-.19-1.46-.06-2.14,.2-1.58,.58-2.85,1.71-4.19,2.68-1.37,.98-2.69,1.97-3.97,3.07-2.67,2.3-5.14,4.86-7.17,7.74-.36,.5-.71,1.03-1.23,1.37s-1.25,.43-1.73,.05c-.52-.41-.55-1.17-.55-1.83l.1-11.21c0-.81,.54-2.56-.42-3.03-.36-.17-.78-.16-1.17-.11-5.38,.57-8.1,4.57-11.26,8.41-5.59,6.8-9.97,14.51-12.46,22.97-1.08,3.67-1.81,7.63-.7,11.29,1.27-1.66,1.67-3.8,2.08-5.84,1.15-5.67,2.8-11.21,5.53-16.32,1.51-2.81,3.51-5.32,5.68-7.65,1.32-1.42,2.79-2.71,4.11-4.14,.73-.8,2.27-3.86,3.46-3.86,.81,0,1.07,1.08,1.1,1.9,.14,4.37,.87,8.71,2.17,12.88,.26,.82,.61,1.73,1.41,2.06,1.54,.64,2.87-1.21,3.62-2.27,1.57-2.22,3.07-4.59,4.84-6.71,1.31-1.57,2.75-3.12,4.5-4.2,.72-.45,2.11-1.43,1.93,0-.15,1.18-.65,2.38-1.03,3.5,0,.86-.72,2.11-1,2.93l-1.05,3.09c-.68,2-1.34,3.99-1.95,6-1.08,3.51-2.13,7.14-2.71,10.81-.3,1.9-.48,3.82-.48,5.74,0,.33,.28,4.72,.57,4.59l6.82-3.04c2.21-.99,4.59-1.84,6.71-3.01-1.11-.79-2.22-1.37-3.63-1.17-1.57,.22-2.89,1.3-4.43,1.68-.45,.11-.74,.06-.92-.09Z"/><path class="cls-2" d="M223.59,346.82c-.08,0-.16-.02-.21-.06-.53-.35-.7-4.84-.7-4.88,0-1.84,.17-3.79,.49-5.8,.6-3.82,1.72-7.6,2.72-10.85,.57-1.85,1.21-3.82,1.96-6.01l1.05-3.09c.09-.27,.23-.58,.37-.9,.29-.65,.61-1.4,.61-1.92,0-.04,0-.08,.02-.11,.08-.24,.17-.48,.25-.72,.32-.89,.65-1.81,.76-2.71,.04-.29-.01-.37-.01-.37-.18-.05-.94,.42-1.22,.6l-.17,.11c-1.77,1.09-3.23,2.7-4.42,4.13-1.27,1.52-2.42,3.2-3.53,4.82-.43,.63-.86,1.25-1.29,1.87-.72,1.02-2.22,3.14-4.03,2.39-.91-.38-1.32-1.36-1.61-2.28-1.31-4.21-2.04-8.57-2.19-12.97-.02-.58-.2-1.56-.75-1.56h0c-.65,0-1.71,1.6-2.34,2.55-.33,.5-.62,.94-.86,1.2-.69,.75-1.42,1.46-2.13,2.15-.66,.64-1.34,1.31-1.98,1.99-2.52,2.71-4.31,5.12-5.62,7.58-2.42,4.53-4.17,9.68-5.5,16.23l-.05,.23c-.41,2.02-.83,4.1-2.1,5.76-.08,.1-.21,.15-.34,.13-.13-.02-.23-.12-.27-.24-1.21-3.98-.26-8.23,.7-11.49,2.4-8.13,6.61-15.9,12.53-23.09,.3-.36,.59-.72,.88-1.08,2.88-3.56,5.6-6.92,10.61-7.46,.45-.05,.93-.06,1.36,.15,.96,.47,.8,1.76,.68,2.69-.03,.25-.06,.47-.06,.65l-.1,11.21c0,.59,.02,1.24,.42,1.56,.36,.29,.94,.19,1.33-.06,.43-.28,.74-.72,1.07-1.19l.06-.09c1.92-2.72,4.28-5.27,7.23-7.81,1.13-.97,2.36-1.92,3.99-3.09,.3-.22,.6-.44,.9-.67,1.04-.78,2.11-1.59,3.37-2.05,.88-.32,1.67-.39,2.35-.21,.66,.18,1.18,.6,1.46,1.19,.3,.62,.29,1.36,0,2.04-.37,.85-.93,1.67-1.47,2.45-.34,.49-.69,1-.97,1.5-.8,1.4-1.56,2.85-2.26,4.31-2.57,5.35-4.39,11.26-5.41,17.56-.28,1.73-.5,3.48-.65,5.22-.03,.3-.06,.61-.09,.91-.05,.54-.1,1.08-.14,1.62,0,.14-.02,.29-.04,.44-.05,.47-.11,1.11,.09,1.28h0c.1,.08,.31,.09,.61,.01,.66-.16,1.28-.46,1.93-.77,.8-.38,1.62-.78,2.54-.91,1.58-.23,2.8,.46,3.88,1.23,.1,.07,.15,.18,.14,.3,0,.12-.07,.23-.18,.28-1.45,.8-3.03,1.46-4.56,2.1-.73,.31-1.46,.61-2.18,.93l-6.81,3.04s-.1,.03-.15,.03Zm6.98-33.44c-.02,.65-.37,1.44-.67,2.13-.13,.31-.26,.6-.35,.85l-1.05,3.09c-.75,2.18-1.38,4.14-1.95,5.99-.99,3.23-2.1,6.99-2.7,10.76-.31,1.98-.47,3.89-.48,5.69,0,.36,.2,3.22,.39,4.13l6.5-2.9c.72-.32,1.46-.63,2.19-.93,1.33-.56,2.71-1.13,3.99-1.79-.94-.61-1.83-.95-2.92-.79-.81,.12-1.55,.47-2.33,.85-.66,.32-1.34,.64-2.07,.82-.54,.13-.94,.08-1.23-.16h0c-.48-.41-.4-1.15-.33-1.88,.01-.14,.03-.28,.04-.42,.04-.55,.09-1.1,.14-1.64,.03-.3,.06-.6,.08-.9,.15-1.76,.37-3.53,.65-5.27,1.03-6.37,2.87-12.34,5.47-17.75,.7-1.47,1.47-2.94,2.29-4.35,.3-.52,.66-1.04,1-1.55,.52-.76,1.06-1.55,1.4-2.34,.22-.49,.22-1.02,.01-1.46-.19-.4-.55-.69-1.02-.82-.54-.15-1.19-.09-1.93,.19-1.17,.43-2.2,1.2-3.19,1.95-.31,.23-.61,.46-.92,.68-1.62,1.15-2.83,2.1-3.94,3.05-2.91,2.5-5.23,5.01-7.12,7.68l-.06,.09c-.35,.5-.72,1.02-1.26,1.37-.58,.38-1.49,.54-2.14,.03-.69-.55-.68-1.56-.68-2.11l.1-11.21c0-.2,.03-.46,.07-.73,.1-.77,.22-1.73-.3-1.98-.27-.13-.63-.12-.98-.08-4.73,.5-7.36,3.76-10.15,7.2-.29,.36-.59,.72-.88,1.09-5.85,7.12-10.02,14.8-12.4,22.85-.87,2.97-1.74,6.78-.89,10.37,.86-1.43,1.22-3.17,1.56-4.86l.05-.23c1.34-6.61,3.11-11.83,5.57-16.42,1.35-2.51,3.17-4.97,5.73-7.72,.65-.7,1.34-1.37,2-2.02,.7-.68,1.43-1.39,2.1-2.12,.2-.21,.49-.65,.79-1.11,.89-1.34,1.9-2.86,2.92-2.86h0c.85,0,1.4,.86,1.45,2.23,.14,4.34,.87,8.64,2.16,12.79,.25,.8,.57,1.57,1.21,1.84,1.29,.54,2.53-1.21,3.2-2.15,.43-.61,.86-1.23,1.29-1.86,1.12-1.63,2.28-3.32,3.57-4.87,1.23-1.47,2.74-3.13,4.59-4.27l.17-.1c.65-.41,1.46-.91,1.97-.58,.28,.18,.38,.52,.32,1.03-.12,.97-.47,1.93-.8,2.86-.08,.22-.16,.44-.23,.66Z"/></g><ellipse class="cls-3" cx="245.32" cy="467.06" rx="2.01" ry="7.68"/><ellipse class="cls-3" cx="249.33" cy="467.06" rx="2.01" ry="7.68"/><ellipse class="cls-3" cx="253.34" cy="467.06" rx="2.01" ry="7.68"/><path class="cls-5" d="M263.14,445.53c33.2-2.54,63.31-16.2,86.69-37.3,.6-.54,.74-1.44,.34-2.15l-9.33-16.44c9.49-23.37-7.64-40.12-7.64-40.12-1.74,10.61-26.32,25.49-34.52,30.18-1.46,.84-1.98,2.69-1.16,4.16l9.22,16.78c-16.62,8.08-34.62,12.5-53.43,12.5-20.77,0-42.58-6.07-60.6-15.82l7.65-15.52c.62-1.26,.05-2.79-1.25-3.33-4.97-2.07-16.71-8.45-28.05-25.73-.62-.94-4.34-6.53-4.34-6.53,0,0-16.12,14.08-10.11,37.72l-11.59,13.63c-.48,.57-.47,1.42,.04,1.96,23.6,25.2,55.88,42.03,92.02,45.68,1.26,.13,2.36,.86,2.96,1.98,1.55,2.88,2.92,7.33,3.54,14.23,.07,.84,.78,1.48,1.62,1.48h8.27c.85,0,1.56-.65,1.63-1.5,.23-2.85,1.24-9.24,5.76-14.69,.57-.69,1.4-1.11,2.29-1.18Z"/><g><path class="cls-3" d="M306.22,383.07l2.55,4.87s29.2-7.65,29.2-12.05-5.1-13.44-5.1-13.44c0,0-10.2,13.67-26.65,20.62Z"/><path class="cls-3" d="M251.62,439.12c-37.02,0-72.77-14.93-98.96-41.16l11.53-13.56c26.22,22.85,56.81,34.88,88.88,34.88,28.72,0,56.55-9.8,80.96-28.42l8.35,14.71c-25.35,21.68-57.38,33.55-90.76,33.55Z"/><path class="cls-3" d="M310.84,391.29l3.07,5.45,19.81-12.34s-10.54,3.82-22.88,6.89Z"/><path class="cls-3" d="M193.11,380.84l-2.4,3.78s-27.65-7.76-29.43-11.7c-1.81-4.01,7.54-15.71,7.54-15.71,0,0,8.48,15.33,24.29,23.62Z"/><path class="cls-3" d="M189,387.29l-4.16,5.67-19.32-13s11.44,3.25,23.48,7.34Z"/></g><g><path class="cls-1" d="M173.28,407.41c-.8,1.02-1.85,1.56-3.14,1.63s-2.53-.36-3.69-1.27c-.8-.62-1.38-1.37-1.74-2.24-.36-.87-.38-1.81-.04-2.81,.03-.59,.2-1.08,.51-1.48,.19-.08,.44-.05,.75,.09l.21,.14,.2,.16,.18,.31c-.38,.67-.51,1.42-.39,2.24,.12,.82,.51,1.49,1.19,2.02,.51,.4,1.08,.59,1.71,.58s1.11-.23,1.44-.66c.38-.48,.48-1.01,.32-1.59-.16-.58-.59-1.37-1.27-2.36-.68-.99-1.06-1.94-1.15-2.84-.09-.9,.17-1.73,.76-2.48,.7-.89,1.65-1.38,2.87-1.49,1.22-.1,2.33,.24,3.34,1.03,.68,.54,1.16,1.2,1.44,1.99,.28,.79,.23,1.52-.14,2.19l.38,.15,.11,.14c.02,.1,.04,.22,.06,.35,.02,.14,0,.29-.03,.46-.03,.25-.11,.46-.23,.61-.29,.09-.58,.07-.89-.06l-.27-.16c-.15-.12-.3-.31-.43-.56,.25-.51,.31-1.11,.19-1.8-.13-.69-.45-1.25-.99-1.66-.44-.34-.92-.5-1.43-.46-.52,.04-.94,.27-1.28,.7-.34,.43-.42,.91-.24,1.44,.19,.51,.84,1.51,1.96,2.99,1.11,1.48,1.03,3.05-.26,4.69Z"/><path class="cls-1" d="M177.01,414.45c-.1,.15-.29,.21-.56,.17l-1.45-.88-1.32-.97c-.15-.19-.17-.37-.06-.53l.27-.19,.18,.12c.09,.01,.21-.06,.38-.22l.49-.63,5.61-8.4c.2-.29,.32-.51,.39-.67,.06-.15,.06-.29,0-.41l-.23-.15,.1-.36c.1-.15,.29-.21,.56-.17l1.44,.89,1.33,.96c.15,.19,.17,.37,.06,.53l-.27,.19-.18-.12c-.08,0-.21,.07-.39,.23l-.48,.62-5.61,8.4c-.22,.33-.36,.56-.4,.69-.05,.13-.04,.25,.01,.38l.23,.15-.1,.36Z"/><path class="cls-1" d="M190.03,419.98c-.15,.27-.4,.59-.75,.96-.35,.37-.67,.61-.95,.72h-.22l-.15-.1-.56-.43-5.6-3.14-1.39-.86c-.17-.18-.21-.35-.11-.51l.25-.21,.19,.1c.09,0,.2-.07,.34-.22,.14-.15,.29-.38,.46-.69l4.9-8.75c.3-.53,.4-.9,.31-1.12l-.24-.13,.06-.35c.09-.16,.27-.24,.55-.22l1.51,.78,4.99,2.8c.5,.28,.87,.43,1.13,.45l.19,.1c.08,.04,.15,.13,.21,.25,0,.17-.06,.47-.21,.89-.15,.42-.29,.75-.41,.97-.18,.17-.38,.21-.61,.13-.16-.09-.23-.24-.23-.45,0-.21-.04-.38-.15-.5-.08-.12-.24-.25-.48-.38l-3.55-1.99c-.14-.08-.26-.1-.38-.07s-.27,.22-.46,.56l-1.51,2.7-.22,.39c-.03,.09,0,.16,.09,.23l3.18,1.78c.11,.06,.21,.08,.3,.06,.09-.02,.22-.15,.38-.37,.15-.14,.29-.17,.41-.1,.19,.11,.24,.3,.16,.58-.09,.28-.17,.49-.25,.65s-.16,.31-.25,.47c-.11,.19-.22,.37-.32,.53-.11,.16-.22,.3-.32,.42-.17,.22-.35,.29-.55,.23-.16-.09-.2-.27-.12-.54,.11-.27,.05-.47-.18-.59l-3.18-1.78c-.08-.04-.16-.03-.26,.06l-.21,.37-1.61,2.87c-.18,.32-.26,.54-.24,.67,.04,.1,.12,.2,.26,.3l3.75,2.1c.19,.11,.42,.15,.69,.13s.52-.12,.77-.29c.11-.12,.24-.14,.4-.07l.07,.04c.14,.09,.18,.28,.13,.56Z"/><path class="cls-1" d="M207.01,429.28c-.07,.17-.23,.26-.48,.29l-1.47-.52-1.36-.64c-.16-.12-.21-.29-.15-.5l.19-.26,.1,.04c.11,0,.22-.09,.35-.27l.39-.7,2.96-7.45-5.94,5.63c-.6,.6-1.11,1.02-1.53,1.26-.4,.26-.68,.35-.85,.28-.32-.13-.52-1.06-.6-2.78l-.19-8.27-3.04,7.06-.39,.94c-.08,.2-.1,.36-.06,.46l.25,.19-.04,.36c-.07,.17-.23,.26-.48,.29l-1.04-.34-1.12-.55c-.17-.16-.24-.33-.19-.52l.25-.24,.23,.1c.21,0,.51-.46,.89-1.38l3.68-8.94c.24-.59,.29-.97,.16-1.14l-.25-.1,.02-.36c.07-.16,.24-.25,.51-.26l1.95,.72,.22,.09c.33,.13,.55,.26,.67,.38,.12,.12,.18,.31,.19,.56l.42,9.96,7.32-6.8c.15-.13,.33-.2,.54-.23,.2,0,.45,.06,.75,.19l.18,.07,1.77,.81c.15,.14,.2,.31,.16,.5l-.21,.24-.19-.08s-.15,.11-.31,.32l-.35,.7-3.85,9.34c-.12,.29-.19,.52-.23,.71s0,.33,.11,.45l.09,.04-.04,.36Z"/><path class="cls-1" d="M223.7,424.3c-.34,1.24-1.06,2.11-2.16,2.62-1.1,.51-2.42,.56-3.94,.14l-1.3-.36-.26-.07c-.3-.08-.57-.12-.81-.12l-.91,3.3-.18,.66c-.04,.2,0,.36,.12,.48l.23,.06,.02,.37c-.05,.18-.21,.29-.48,.33l-1.54-.34-1.5-.49c-.2-.14-.28-.3-.23-.49l.19-.27,.21,.06c.09-.02,.18-.12,.27-.3,.1-.18,.19-.44,.28-.78l2.65-9.67c.08-.27,.12-.51,.12-.71,0-.2-.04-.35-.14-.46l-.3-.08-.04-.36c.05-.18,.21-.29,.5-.34l1.73,.47,3.75,.91c1.44,.39,2.5,1.09,3.19,2.09,.69,1,.86,2.12,.52,3.36Zm-2.6-.68c.22-.8,.14-1.5-.25-2.1-.39-.6-1.03-1.02-1.93-1.27l-.96-.26-.6-.1-.33,.03-1.24,4.52c.2,.2,.43,.38,.68,.53,.24,.11,.6,.23,1.09,.36,.9,.25,1.66,.23,2.28-.06,.62-.29,1.04-.84,1.26-1.65Z"/><path class="cls-1" d="M236.22,435.73l-.04,.14c-.09,.21-.23,.32-.43,.34h-.67l-.73-.1c-.32-.05-.55-.1-.7-.13-.15-.04-.37-.12-.68-.25-.86-1.37-1.46-2.6-1.81-3.67-.35-1.08-.67-1.94-.96-2.59-.05-.23-.18-.38-.38-.46l-.13-.02c-.09-.01-.15,.01-.19,.09l.09-1.15c.09,.08,.25,.16,.48,.23l.46,.11c.95,.15,1.73,.04,2.34-.34,.61-.38,.99-1,1.13-1.88,.13-.81-.01-1.5-.44-2.06-.42-.56-1.08-.91-1.96-1.05-.54-.09-.94-.11-1.2-.07-.26,.04-.57,.29-.94,.73l-1.42,9.39c-.1,.62-.1,.99,.01,1.13l.19,.03,.04,.36c-.03,.18-.17,.31-.42,.39l-1.55-.17-1.58-.33c-.22-.11-.31-.27-.28-.46l.16-.29,.21,.03c.08-.03,.16-.13,.24-.33s.14-.46,.2-.8l1.6-9.9c.1-.6,.07-.99-.09-1.16l-.27-.04-.04-.35c.03-.18,.17-.32,.42-.4l1.67,.15,4.09,.66c1.47,.24,2.59,.81,3.36,1.71,.77,.9,1.05,1.97,.85,3.21-.17,1.04-.63,1.83-1.39,2.38-.76,.55-1.57,.83-2.42,.85,.35,.82,.8,1.54,1.34,2.16s.98,1.67,1.34,3.14l.07,.31,.23,.17c.14,.02,.21,.12,.21,.28Z"/><path class="cls-1" d="M249.81,434.82c-.02,.31-.1,.71-.25,1.2-.15,.49-.33,.84-.53,1.06l-.2,.09h-.17l-.69-.14-6.41-.35-1.63-.16c-.23-.09-.34-.22-.33-.41l.13-.3h.21c.08-.02,.15-.14,.2-.34s.09-.47,.11-.82l.54-10.01c.03-.61-.04-.99-.21-1.14h-.27l-.1-.36c0-.19,.14-.33,.39-.44l1.69,.03,5.71,.31c.57,.03,.97,0,1.21-.09h.21c.09,.02,.19,.06,.3,.14,.08,.15,.15,.44,.21,.89,.05,.44,.07,.8,.06,1.06-.09,.23-.25,.36-.49,.38-.18,0-.31-.11-.4-.3-.09-.19-.21-.32-.36-.38-.13-.07-.32-.11-.6-.13l-4.06-.22c-.16,0-.28,.03-.37,.11-.09,.08-.14,.31-.16,.7l-.17,3.09-.02,.45c0,.09,.07,.15,.19,.17l3.63,.2c.13,0,.23-.02,.3-.08,.07-.06,.13-.23,.18-.5,.08-.19,.18-.28,.33-.27,.22,.01,.35,.16,.39,.45,.04,.29,.06,.52,.06,.7,0,.18,0,.35-.02,.53-.01,.22-.03,.43-.05,.62s-.06,.37-.11,.52c-.05,.27-.19,.42-.39,.45-.18,0-.3-.15-.35-.43-.02-.29-.16-.44-.42-.45l-3.63-.2c-.09,0-.16,.05-.2,.16l-.02,.43-.18,3.28c-.02,.36,0,.6,.08,.71,.07,.07,.19,.12,.36,.16l4.29,.23c.22,.01,.44-.05,.67-.19,.23-.14,.41-.34,.56-.6,.05-.15,.16-.23,.32-.24h.08c.17,.03,.29,.18,.37,.45Z"/><path class="cls-1" d="M284.66,431.25l.04,.31c.09,.44,.09,.82-.02,1.16s-.26,.53-.48,.57l-.11,.02c-.21-.06-.51-.05-.89,.03l-5.42,1.2-1.65,.26c-.23-.03-.38-.14-.45-.32l-.02-.18,.09-.16,.25-.05c.07-.05,.1-.19,.11-.42l-.09-.8-2.05-9.89c-.06-.28-.13-.51-.21-.68-.08-.17-.2-.29-.34-.34l-.31,.06-.2-.31c-.04-.18,.06-.35,.29-.52l1.51-.37,1.84-.32c.23,.03,.38,.14,.45,.32l-.07,.33-.23,.05c-.08,.06-.12,.19-.13,.39,0,.21,.03,.48,.1,.82l1.94,9.34c.07,.36,.16,.57,.25,.64s.23,.1,.41,.07l3.53-.73c.55-.11,.84-.38,.89-.8l.05-.41c.08-.14,.17-.21,.27-.23,.08-.02,.18,.02,.3,.12,.16,.26,.27,.53,.33,.83Z"/><path class="cls-1" d="M291.44,430.63c.05,.17-.03,.35-.23,.53l-1.61,.54-1.59,.38c-.25-.01-.4-.11-.45-.3l.03-.33,.21-.06c.06-.06,.09-.2,.08-.43l-.16-.78-2.78-9.71c-.1-.34-.18-.58-.26-.73-.08-.15-.18-.24-.31-.27l-.26,.08-.21-.3c-.05-.17,.03-.35,.23-.53l1.61-.52,1.59-.39c.25,.01,.4,.11,.45,.3l-.03,.33-.21,.06c-.05,.06-.08,.2-.08,.45l.16,.76,2.78,9.71c.11,.39,.2,.64,.27,.75s.17,.2,.3,.24l.26-.08,.21,.31Z"/><path class="cls-1" d="M302.83,422.61c.45,1.22,.36,2.39-.26,3.53-.62,1.14-1.63,1.96-3.02,2.48-.95,.35-1.89,.45-2.82,.31-.93-.15-1.74-.63-2.41-1.44-.48-.33-.81-.74-.99-1.21,.03-.21,.19-.4,.47-.59l.23-.11,.24-.09h.36c.38,.69,.94,1.19,1.7,1.52,.76,.33,1.54,.34,2.34,.05,.61-.23,1.07-.61,1.39-1.15,.32-.54,.38-1.07,.19-1.58-.21-.57-.61-.94-1.19-1.11-.58-.17-1.47-.22-2.67-.16s-2.21-.11-3.02-.51c-.81-.4-1.38-1.05-1.72-1.95-.39-1.06-.31-2.13,.24-3.22,.55-1.09,1.43-1.86,2.63-2.3,.82-.3,1.63-.36,2.45-.18s1.42,.6,1.79,1.27l.32-.24,.18-.02c.1,.03,.21,.08,.33,.14,.13,.06,.25,.15,.38,.26,.2,.16,.33,.33,.4,.52-.07,.29-.25,.53-.52,.73l-.28,.14c-.18,.07-.42,.09-.7,.07-.3-.48-.78-.85-1.44-1.11-.66-.26-1.3-.27-1.93-.03-.52,.19-.9,.52-1.14,.98-.24,.46-.26,.95-.07,1.46,.19,.51,.56,.83,1.1,.96,.54,.11,1.73,.07,3.58-.1,1.85-.17,3.13,.72,3.86,2.68Z"/><path class="cls-1" d="M310.99,410.49c.13,.27,.08,.5-.14,.69l-.13,.09c-.16,.08-.31,.11-.44,.08l-.28-.13-.32-.21c-.14-.11-.27-.14-.39-.09-.43,.21-.78,.42-1.04,.64-.26,.22-.47,.51-.63,.87l4.12,8.58c.13,.28,.26,.49,.37,.64,.11,.15,.25,.22,.41,.21l.3-.14,.28,.26c.08,.16,.03,.35-.16,.57l-1.61,.86-1.67,.71c-.24,.03-.42-.04-.53-.2v-.35l.29-.13c.09-.09,.11-.23,.07-.44l-.28-.77-4.12-8.58c-.33-.09-.68-.11-1.04-.06-.16,.03-.33,.08-.52,.14-.19,.06-.4,.15-.63,.26-.13,.06-.21,.22-.24,.47-.03,.25-.08,.44-.15,.56-.06,.14-.15,.25-.28,.33l-.19,.05c-.2,.06-.38-.06-.52-.36-.1-.21-.17-.37-.21-.48-.04-.11-.09-.34-.14-.67-.05-.34-.06-.69-.02-1.06,.05-.14,.11-.23,.19-.29l.12-.06,.18-.08h.44l.47-.22,5.65-2.71,.35-.17c.07-.03,.18-.16,.32-.37l.23-.11,.09-.04c.06-.03,.18-.02,.36,.02,.3,.18,.58,.43,.85,.76,.27,.33,.47,.64,.61,.93Z"/><path class="cls-1" d="M327.52,405.95c1.05,1.68,1.35,3.5,.88,5.47-.47,1.96-1.59,3.5-3.37,4.62-1.74,1.09-3.59,1.43-5.57,1.01-1.98-.41-3.5-1.47-4.57-3.18-1.05-1.68-1.35-3.5-.88-5.47,.47-1.96,1.58-3.5,3.34-4.6,1.75-1.1,3.61-1.44,5.59-1.03s3.5,1.47,4.58,3.18Zm-2.26,2.04l-.28-.44c-.8-1.28-1.87-2.09-3.2-2.44s-2.56-.17-3.69,.53c-1.08,.68-1.68,1.61-1.81,2.81-.05,.58,0,1.15,.13,1.71,.14,.56,.38,1.11,.72,1.66l.29,.46c.79,1.25,1.85,2.06,3.19,2.42s2.57,.19,3.68-.5c1.08-.68,1.68-1.61,1.8-2.8,.12-1.19-.16-2.33-.83-3.41Z"/></g><g><path class="cls-5" d="M281.36,97.31c-3.88-7.98-9.46-13.38-12.46-12.06-.89,.39-1.44,1.33-1.69,2.65-1.44-1.23-2.82-1.78-3.97-1.42-.92,.29-1.58,1.15-1.99,2.41-1.06-1.08-2.13-1.61-3.11-1.44-.96,.16-1.72,.96-2.29,2.22-1.04-1.56-2.28-2.49-3.61-2.53-1.42-.04-2.75,.94-3.86,2.65-.7-1.71-1.71-2.86-2.99-3.16-1.31-.31-2.73,.31-4.1,1.6-.29-.8-.71-1.36-1.29-1.6-1.09-.45-2.54,.28-4.08,1.85-.2-1.58-.77-2.73-1.74-3.22-2.98-1.51-8.55,3.73-12.44,11.7s-4.63,15.67-1.65,17.18c1.65,.84,4.09-.4,6.61-3.03-.12,2.88,.43,4.92,1.71,5.45,1.62,.67,4.02-1.24,6.37-4.71,.56,3.33,1.87,5.66,3.79,6.11,2.53,.6,5.46-2.19,7.65-6.8,1.17,4.74,3.34,7.96,5.85,8.03,2.45,.07,4.6-2.87,5.84-7.34,1.94,4.53,4.42,7.39,6.54,7.04,1.74-.29,2.87-2.68,3.24-6.21,2.24,2.98,4.58,4.59,6.36,4.03,1.57-.5,2.4-2.61,2.47-5.62,2.44,2.53,4.8,3.77,6.41,3.07,3-1.32,2.29-8.86-1.59-16.84Z"/><path class="cls-2" d="M252.16,119.43s-.06,0-.09,0c-2.45-.07-4.64-2.89-5.92-7.59-2.28,4.51-5.17,6.93-7.63,6.36-1.85-.44-3.22-2.47-3.86-5.74-2.42,3.43-4.72,5.01-6.33,4.34-1.24-.51-1.89-2.31-1.87-5.08-2.53,2.49-4.87,3.46-6.46,2.65-3.14-1.59-2.46-9.28,1.55-17.49,2.99-6.13,7-10.79,10.22-11.87,.97-.32,1.82-.31,2.53,.06,.91,.46,1.52,1.47,1.79,2.94,1.56-1.48,2.94-2.03,4.01-1.58,.54,.22,.97,.7,1.29,1.42,1.4-1.23,2.8-1.73,4.06-1.43,1.21,.29,2.24,1.29,2.98,2.91,1.14-1.61,2.44-2.45,3.82-2.4,1.26,.03,2.49,.83,3.56,2.3,.6-1.17,1.37-1.84,2.29-1.99,.96-.16,2,.28,3.05,1.25,.46-1.18,1.13-1.93,2.01-2.21,1.11-.35,2.45,.07,3.89,1.22,.31-1.25,.9-2.07,1.75-2.44,3.16-1.39,8.77,3.96,12.77,12.18h0c2.95,6.08,4.18,12.23,3.05,15.3-.34,.92-.87,1.54-1.58,1.85-1.58,.69-3.81-.28-6.3-2.73-.17,2.94-1.09,4.81-2.61,5.29-1.72,.55-3.98-.78-6.27-3.66-.46,3.44-1.68,5.56-3.37,5.84-2.09,.35-4.51-2.11-6.54-6.59-1.32,4.34-3.46,6.89-5.8,6.9Zm-5.87-8.95l.16,.63c1.18,4.78,3.34,7.79,5.63,7.85,.03,0,.05,0,.08,0,2.22,0,4.28-2.67,5.53-7.17l.18-.64,.26,.61c1.96,4.58,4.36,7.22,6.29,6.9,1.56-.26,2.67-2.45,3.05-6l.06-.59,.36,.47c2.27,3.02,4.5,4.46,6.1,3.95,1.41-.45,2.23-2.37,2.31-5.4v-.56l.4,.4c2.46,2.55,4.7,3.65,6.15,3.01,.59-.26,1.03-.79,1.33-1.59,1.09-2.97-.13-8.97-3.03-14.94h0c-3.82-7.86-9.27-13.22-12.16-11.95-.78,.34-1.31,1.18-1.56,2.48l-.08,.39-.31-.26c-1.43-1.22-2.72-1.7-3.74-1.37-.81,.26-1.43,1.02-1.84,2.26l-.12,.37-.27-.27c-1.03-1.05-2.03-1.52-2.91-1.38-.85,.14-1.56,.84-2.11,2.09l-.17,.39-.23-.35c-1.04-1.55-2.22-2.39-3.42-2.43-1.29-.03-2.56,.84-3.65,2.54l-.24,.38-.17-.41c-.69-1.71-1.67-2.75-2.83-3.02-1.18-.28-2.53,.26-3.89,1.54l-.26,.25-.12-.34c-.28-.77-.67-1.26-1.16-1.47-.94-.39-2.3,.25-3.83,1.8l-.34,.34-.06-.48c-.2-1.55-.76-2.6-1.61-3.04-.6-.3-1.33-.31-2.17-.03-3.06,1.03-7.06,5.7-9.95,11.63-3.83,7.85-4.62,15.42-1.76,16.87,1.49,.76,3.79-.33,6.33-2.98l.43-.45-.02,.62c-.12,2.86,.45,4.76,1.57,5.22,1.44,.6,3.72-1.13,6.09-4.63l.33-.48,.1,.58c.56,3.35,1.88,5.51,3.61,5.92,2.34,.55,5.16-2.01,7.38-6.67l.28-.59Z"/></g><path class="cls-3" d="M250.32,458.3h-1.48c-.57,0-1.07-.38-1.21-.93l-2.42-9.07c-.21-.8,.39-1.58,1.21-1.58h7.04c.86,0,1.47,.85,1.19,1.67l-3.14,9.07c-.18,.51-.65,.85-1.19,.85Z"/></svg>